<svg width="134" height="127" viewBox="0 0 134 127" fill="none" xmlns="http://www.w3.org/2000/svg">
<g clip-path="url(#clip0_186_11)">
<path d="M41.3807 63.2531C35.6918 63.2531 31.068 67.5919 31.068 72.93C31.068 78.2681 35.6918 82.6069 41.3807 82.6069C47.0696 82.6069 51.6934 78.2681 51.6934 72.93C51.6934 67.5919 47.0696 63.2531 41.3807 63.2531ZM41.3807 81.4369C36.3932 81.4369 32.3149 77.6344 32.3149 72.93C32.3149 68.25 36.3672 64.4231 41.3807 64.4231C46.3942 64.4231 50.4465 68.2256 50.4465 72.93C50.4205 77.6344 46.3682 81.4369 41.3807 81.4369Z" fill="#000639"/>
<path d="M36.7049 33.1012C36.7049 33.2719 36.8348 33.3937 37.0166 33.3937H45.7447C45.9266 33.3937 46.0565 33.2719 46.0565 33.1012C46.0565 32.9306 45.9266 32.8087 45.7447 32.8087H37.0166C36.8348 32.8087 36.7049 32.9306 36.7049 33.1012Z" fill="#000639"/>
<path d="M38.4453 42.315C38.2635 42.315 38.1336 42.4369 38.1336 42.6075V43.8019C38.1336 43.9725 38.2635 44.0944 38.4453 44.0944C38.6272 44.0944 38.757 43.9725 38.757 43.8019V42.6075C38.757 42.4613 38.6012 42.315 38.4453 42.315Z" fill="#000639"/>
<path d="M41.3807 42.315C41.1989 42.315 41.069 42.4369 41.069 42.6075V43.8019C41.069 43.9725 41.1989 44.0944 41.3807 44.0944C41.5625 44.0944 41.6924 43.9725 41.6924 43.8019V42.6075C41.6924 42.4613 41.5625 42.315 41.3807 42.315Z" fill="#000639"/>
<path d="M44.3161 42.315C44.1342 42.315 44.0043 42.4369 44.0043 42.6075V43.8019C44.0043 43.9725 44.1342 44.0944 44.3161 44.0944C44.4979 44.0944 44.6278 43.9725 44.6278 43.8019V42.6075C44.6278 42.4613 44.4979 42.315 44.3161 42.315Z" fill="#000639"/>
<path d="M36.9647 45.7275C36.7828 45.7275 36.653 45.8494 36.653 46.02V47.2144C36.653 47.385 36.7828 47.5069 36.9647 47.5069C37.1465 47.5069 37.2764 47.385 37.2764 47.2144V46.02C37.2764 45.8494 37.1465 45.7275 36.9647 45.7275Z" fill="#000639"/>
<path d="M39.9 45.7275C39.7182 45.7275 39.5883 45.8494 39.5883 46.02V47.2144C39.5883 47.385 39.7182 47.5069 39.9 47.5069C40.0819 47.5069 40.2118 47.385 40.2118 47.2144V46.02C40.2118 45.8494 40.0819 45.7275 39.9 45.7275Z" fill="#000639"/>
<path d="M42.8354 45.7275C42.6536 45.7275 42.5237 45.8494 42.5237 46.02V47.2144C42.5237 47.385 42.6536 47.5069 42.8354 47.5069C43.0172 47.5069 43.1471 47.385 43.1471 47.2144V46.02C43.1731 45.8494 43.0172 45.7275 42.8354 45.7275Z" fill="#000639"/>
<path d="M45.7707 45.7275C45.5889 45.7275 45.459 45.8494 45.459 46.02V47.2144C45.459 47.385 45.5889 47.5069 45.7707 47.5069C45.9525 47.5069 46.0824 47.385 46.0824 47.2144V46.02C46.1084 45.8494 45.9525 45.7275 45.7707 45.7275Z" fill="#000639"/>
<path d="M34.9645 91.1625C35.1463 91.1625 35.2762 91.0406 35.2762 90.87V87.2625C35.2762 87.0918 35.1463 86.97 34.9645 86.97C34.7827 86.97 34.6528 87.0918 34.6528 87.2625V90.87C34.6528 91.0162 34.7827 91.1625 34.9645 91.1625Z" fill="#000639"/>
<path d="M39.2506 91.1625C39.4324 91.1625 39.5623 91.0406 39.5623 90.87V87.2625C39.5623 87.0918 39.4324 86.97 39.2506 86.97C39.0688 86.97 38.9389 87.0918 38.9389 87.2625V90.87C38.9129 91.0162 39.0688 91.1625 39.2506 91.1625Z" fill="#000639"/>
<path d="M43.5108 91.1625C43.6926 91.1625 43.8225 91.0406 43.8225 90.87V87.2625C43.8225 87.0918 43.6926 86.97 43.5108 86.97C43.3289 86.97 43.199 87.0918 43.199 87.2625V90.87C43.199 91.0162 43.3289 91.1625 43.5108 91.1625Z" fill="#000639"/>
<path d="M47.7969 91.1625C47.9788 91.1625 48.1086 91.0406 48.1086 90.87V87.2625C48.1086 87.0918 47.9788 86.97 47.7969 86.97C47.6151 86.97 47.4852 87.0918 47.4852 87.2625V90.87C47.4592 91.0162 47.6151 91.1625 47.7969 91.1625Z" fill="#000639"/>
<path d="M45.1213 72.6375H41.6924V68.0062C41.6924 67.8356 41.5625 67.7137 41.3807 67.7137C41.1989 67.7137 41.069 67.8356 41.069 68.0062V72.9544C41.069 73.125 41.1989 73.2469 41.3807 73.2469H45.1213C45.3031 73.2469 45.433 73.125 45.433 72.9544C45.433 72.7837 45.3031 72.6375 45.1213 72.6375Z" fill="#000639"/>
<path d="M41.3807 79.4625C41.1989 79.4625 41.069 79.5844 41.069 79.755V80.5594C41.069 80.73 41.1989 80.8519 41.3807 80.8519C41.5625 80.8519 41.6924 80.73 41.6924 80.5594V79.755C41.6924 79.5844 41.5625 79.4625 41.3807 79.4625Z" fill="#000639"/>
<path d="M41.3807 66.4218C41.5625 66.4218 41.6924 66.3 41.6924 66.1293V65.325C41.6924 65.1543 41.5625 65.0325 41.3807 65.0325C41.1989 65.0325 41.069 65.1543 41.069 65.325V66.1293C41.069 66.3 41.1989 66.4218 41.3807 66.4218Z" fill="#000639"/>
<path d="M34.1072 72.6375H33.25C33.0682 72.6375 32.9383 72.7594 32.9383 72.93C32.9383 73.1006 33.0682 73.2225 33.25 73.2225H34.1072C34.2891 73.2225 34.419 73.1006 34.419 72.93C34.419 72.7594 34.2891 72.6375 34.1072 72.6375Z" fill="#000639"/>
<path d="M49.4854 72.6375H48.6281C48.4463 72.6375 48.3164 72.7594 48.3164 72.93C48.3164 73.1006 48.4463 73.2225 48.6281 73.2225H49.4854C49.6672 73.2225 49.7971 73.1006 49.7971 72.93C49.7971 72.7594 49.6672 72.6375 49.4854 72.6375Z" fill="#000639"/>
<path d="M36.0035 77.5613L35.4061 78.1219C35.2762 78.2438 35.2762 78.4388 35.4061 78.5363C35.458 78.585 35.5619 78.6338 35.6399 78.6338C35.7178 78.6338 35.7957 78.6094 35.8736 78.5363L36.4711 77.9756C36.601 77.8538 36.601 77.6588 36.4711 77.5613C36.3412 77.4394 36.1334 77.4394 36.0035 77.5613Z" fill="#000639"/>
<path d="M46.8877 67.3481L46.2903 67.9087C46.1604 68.0306 46.1604 68.2256 46.2903 68.3231C46.3422 68.3719 46.4461 68.4206 46.5241 68.4206C46.602 68.4206 46.6799 68.3962 46.7579 68.3231L47.3553 67.7625C47.4852 67.6406 47.4852 67.4456 47.3553 67.3481C47.2254 67.2262 47.0176 67.2262 46.8877 67.3481Z" fill="#000639"/>
<path d="M36.0036 68.3475C36.0555 68.3962 36.1594 68.445 36.2373 68.445C36.3153 68.445 36.3932 68.4206 36.4711 68.3475C36.601 68.2256 36.601 68.0306 36.4711 67.9331L35.8737 67.3725C35.7438 67.2506 35.536 67.2506 35.4321 67.3725C35.3022 67.4943 35.3022 67.6894 35.4321 67.7869L36.0036 68.3475Z" fill="#000639"/>
<path d="M46.7319 77.5613C46.602 77.4394 46.3942 77.4394 46.2903 77.5613C46.1604 77.6831 46.1604 77.8781 46.2903 77.9756L46.8877 78.5363C46.9397 78.585 47.0436 78.6338 47.1215 78.6338C47.1995 78.6338 47.2774 78.6094 47.3553 78.5363C47.4852 78.4144 47.4852 78.2194 47.3553 78.1219L46.7319 77.5613Z" fill="#000639"/>
<path d="M77.3582 97.2319C77.3582 97.4025 77.4881 97.5244 77.6699 97.5244H89.0736C89.2555 97.5244 89.3854 97.4025 89.3854 97.2319C89.3854 97.0612 89.2555 96.9394 89.0736 96.9394H77.6699C77.4881 96.9394 77.3582 97.0612 77.3582 97.2319Z" fill="#000639"/>
<path d="M95.6198 97.5244H100.685C100.867 97.5244 100.997 97.4025 100.997 97.2319C100.997 97.0612 100.867 96.9394 100.685 96.9394H95.6198C95.4379 96.9394 95.308 97.0612 95.308 97.2319C95.308 97.4025 95.4639 97.5244 95.6198 97.5244Z" fill="#000639"/>
<path d="M91.6713 81.5831C91.5415 81.4612 91.3336 81.4612 91.2297 81.5831C91.0999 81.705 91.0999 81.9 91.2297 81.9975L97.3342 87.7256C97.3862 87.7744 97.4901 87.8231 97.568 87.8231C97.6459 87.8231 97.7239 87.7987 97.8018 87.7256C97.9317 87.6037 97.9317 87.4087 97.8018 87.3112L91.6713 81.5831Z" fill="#000639"/>
<path d="M96.8666 107.177L89.0996 114.465C88.9697 114.587 88.9697 114.782 89.0996 114.879C89.1516 114.928 89.2555 114.977 89.3334 114.977C89.4113 114.977 89.4893 114.952 89.5672 114.879L97.3342 107.591C97.4641 107.469 97.4641 107.274 97.3342 107.177C97.1783 107.055 96.9965 107.055 96.8666 107.177Z" fill="#000639"/>
<path d="M98.9967 105.592C99.0487 105.641 99.1526 105.69 99.2305 105.69C99.3084 105.69 99.3864 105.666 99.4643 105.592L103.049 102.229C103.179 102.107 103.179 101.912 103.049 101.814C102.919 101.692 102.711 101.692 102.607 101.814L99.0227 105.178C98.8668 105.3 98.8668 105.495 98.9967 105.592Z" fill="#000639"/>
<path d="M88.7879 104.617C88.8399 104.739 88.9438 104.812 89.0736 104.812C89.1256 104.812 89.1516 104.812 89.2035 104.788L93.9053 102.984C94.0611 102.911 94.1391 102.741 94.0871 102.594C94.0092 102.448 93.8274 102.375 93.6715 102.424L88.9697 104.227C88.7879 104.276 88.71 104.447 88.7879 104.617Z" fill="#000639"/>
<path d="M96.2432 101.717C96.2952 101.839 96.3991 101.912 96.5289 101.912C96.5809 101.912 96.6069 101.912 96.6588 101.887L101.361 100.084C101.516 100.011 101.594 99.84 101.542 99.6937C101.464 99.5475 101.283 99.4743 101.127 99.5231L96.425 101.327C96.2692 101.4 96.1912 101.571 96.2432 101.717Z" fill="#000639"/>
<path d="M118.063 74.3681C117.908 74.295 117.726 74.3681 117.648 74.5387L111.258 88.8956C111.18 89.0419 111.258 89.2125 111.439 89.2856C111.491 89.31 111.517 89.31 111.569 89.31C111.699 89.31 111.803 89.2369 111.855 89.115L118.245 74.7581C118.323 74.5875 118.245 74.4169 118.063 74.3681Z" fill="#000639"/>
<path d="M105.231 103.228C105.075 103.155 104.893 103.228 104.815 103.399L102.867 107.786C102.789 107.933 102.867 108.103 103.049 108.176C103.101 108.201 103.127 108.201 103.179 108.201C103.309 108.201 103.413 108.128 103.465 108.006L105.413 103.618C105.465 103.448 105.387 103.277 105.231 103.228Z" fill="#000639"/>
<path d="M66.5 17.2331C58.4992 17.2331 50.9141 18.7931 44.0043 21.5962C43.4848 18.8419 43.0951 15.4781 43.0951 11.5294C43.0951 11.1881 42.8094 10.9444 42.4717 10.9444H42.0301V1.07249C42.0301 0.731238 41.7444 0.487488 41.4067 0.487488C41.043 0.487488 40.7832 0.755613 40.7832 1.07249V10.8956H40.3416C39.9779 10.8956 39.7182 11.1637 39.7182 11.4806C39.7182 16.8675 38.9908 21.1575 38.1856 24.3019C37.2764 24.7894 36.3932 25.3012 35.51 25.8375C35.484 25.5206 35.2242 25.3012 34.8865 25.3012C34.5229 25.3012 34.2631 25.5694 34.2631 25.8862V26.6419C19.3266 36.2944 9.50744 52.4794 9.50744 70.7362C9.42951 100.303 35.0424 124.312 66.5 124.312C97.9576 124.312 123.571 100.303 123.571 70.7606C123.571 41.2425 97.9576 17.2331 66.5 17.2331ZM107.907 65.13C89.0217 65.13 73.6695 79.5356 73.6695 97.2562C73.6695 105.861 77.3063 113.685 83.2029 119.462C81.982 119.827 80.7612 120.169 79.5143 120.437C73.7215 114.197 70.2926 106.056 70.2926 97.2319C70.2926 77.7562 87.1774 61.9125 107.933 61.9125C112.349 61.9125 116.609 62.6437 120.557 63.96C120.713 65.13 120.843 66.3 120.921 67.4944C116.895 65.9831 112.505 65.13 107.907 65.13ZM69.9289 116.122C67.7989 116.951 65.383 115.976 64.4998 114.002C64.0842 113.027 64.0842 111.979 64.4998 111.004C64.9154 110.053 65.7207 109.297 66.7598 108.907C67.2793 108.712 67.7988 108.615 68.3444 108.615C68.8899 108.615 69.4354 108.712 69.9549 108.907C70.5004 109.127 70.994 109.444 71.3836 109.834C71.7213 110.711 72.111 111.564 72.5006 112.393C72.5526 113.977 71.5655 115.489 69.9289 116.122ZM70.0328 85.41C68.9938 85.8 67.8768 85.8 66.8377 85.41C65.8246 85.02 65.0194 84.2644 64.6037 83.2894C64.1881 82.3144 64.1881 81.2662 64.6037 80.2912C65.2791 78.8044 66.8117 77.9025 68.4483 77.9025C68.9938 77.9025 69.5133 78 70.0588 78.195C71.7213 78.8531 72.6824 80.3887 72.6045 81.9731C72.1889 82.8019 71.8252 83.6306 71.4875 84.4837C71.0719 84.8494 70.5783 85.1906 70.0328 85.41ZM81.4106 70.5412C80.7352 71.1262 80.0598 71.76 79.4363 72.3937C77.9037 73.0762 75.9815 72.8325 74.7086 71.6381C73.0981 70.1269 73.0981 67.6406 74.7086 66.105C75.5139 65.3494 76.5789 64.9594 77.644 64.9594C78.709 64.9594 79.774 65.3494 80.5793 66.105C81.8782 67.3237 82.1639 69.1031 81.4106 70.5412ZM90.0608 63.7406C89.0477 63.3506 88.2424 62.595 87.8268 61.62C87.4112 60.645 87.4112 59.5969 87.8268 58.6219C88.2424 57.6712 89.0477 56.9156 90.0867 56.5256C90.6063 56.3306 91.1258 56.2331 91.6713 56.2331C92.2168 56.2331 92.7623 56.3306 93.2819 56.5256C94.2949 56.9156 95.1002 57.6712 95.5158 58.6462C95.9315 59.6212 95.9315 60.6694 95.5158 61.6444C95.2821 62.1806 94.9444 62.6194 94.5028 63.0094C93.5936 63.3262 92.6844 63.6675 91.8272 64.0575C91.2037 64.0575 90.6063 63.96 90.0608 63.7406ZM107.907 60.7425C107.413 60.7425 106.946 60.7425 106.478 60.7669C104.893 60.2062 103.75 58.7925 103.75 57.1106C103.75 54.9656 105.621 53.2106 107.907 53.2106C110.193 53.2106 112.063 54.9656 112.063 57.1106C112.063 58.7925 110.92 60.2306 109.335 60.7669C108.868 60.7669 108.4 60.7425 107.907 60.7425ZM40.9391 12.1144H41.8223C41.9262 21.9375 44.316 28.08 45.3291 30.2494H42.0301V25.935C42.0301 25.5937 41.7444 25.35 41.4067 25.35C41.043 25.35 40.7832 25.6181 40.7832 25.935V30.2494H37.4842C38.4453 28.08 40.8352 21.9375 40.9391 12.1144ZM47.2774 31.4437V34.8075H35.458V31.4437H36.4192H46.3162H47.2774ZM50.992 51.8212H31.7434V50.6269H50.992V51.8212ZM29.925 85.1662V60.7181H52.8363V85.1662H29.925ZM53.3559 119.389H51.3817V109.005H53.3559V119.389ZM53.3559 108.396H51.3817V105.471H53.3559V108.396ZM50.7582 108.396H48.1086V105.471H50.7582V108.396ZM32.0031 92.7712H34.6528V104.861H32.0031V92.7712ZM47.4592 92.7712V104.861H43.8225V92.7712H47.4592ZM43.199 104.861H39.5623V92.7712H43.199V104.861ZM38.9129 104.861H35.2762V92.7712H38.9129V104.861ZM34.6528 105.471V108.396H32.0031V105.471H34.6528ZM35.2762 105.471H38.9129V108.396H35.2762V105.471ZM39.5623 105.471H43.199V108.396H39.5623V105.471ZM43.8225 105.471H47.4592V108.396H43.8225V105.471ZM48.1086 104.861V92.7712H50.7582V104.861H48.1086ZM50.7582 92.1862H32.0031V86.3606H50.7582V92.1862ZM51.3297 59.5237H48.8619V56.3794C48.8619 56.2087 48.732 56.0869 48.5502 56.0869C48.3684 56.0869 48.2385 56.2087 48.2385 56.3794V59.5237H44.0822V56.3794C44.0822 56.2087 43.9524 56.0869 43.7705 56.0869C43.5887 56.0869 43.4588 56.2087 43.4588 56.3794V59.5237H39.3026V56.3794C39.3026 56.2087 39.1727 56.0869 38.9908 56.0869C38.809 56.0869 38.6791 56.2087 38.6791 56.3794V59.5237H34.5229V56.3794C34.5229 56.2087 34.393 56.0869 34.2111 56.0869C34.0293 56.0869 33.8994 56.2087 33.8994 56.3794V59.5237H31.4317V54.8194H51.3037V59.5237H51.3297ZM30.8082 54.8194V59.5237H29.4055V54.8194H30.8082ZM28.7561 60.7181H29.2756V85.1662H28.7561H27.2754V60.7181H28.7561ZM31.3797 86.3606V104.861H29.4055V86.3606H31.3797ZM29.4055 105.471H31.3797V108.396H29.6133C29.5354 108.347 29.4834 108.274 29.4055 108.225V105.471ZM31.3797 109.005V109.858C31.016 109.566 30.6783 109.297 30.3147 109.005H31.3797ZM32.0031 109.005H34.6528V112.271C33.7436 111.662 32.8604 111.028 32.0031 110.37V109.005ZM35.2762 109.005H38.9129V114.904C37.666 114.221 36.4451 113.49 35.2762 112.71V109.005ZM39.5623 109.005H43.199V117C41.9522 116.439 40.7572 115.854 39.5623 115.221V109.005ZM43.8225 109.005H47.4592V118.706C46.2123 118.267 45.0174 117.804 43.8225 117.292V109.005ZM48.1086 109.005H50.7582V119.389H49.5373C49.0697 119.242 48.5762 119.096 48.1086 118.926V109.005ZM53.3559 119.974V120.412C52.7584 120.266 52.1869 120.12 51.5895 119.974H53.3559ZM53.3559 104.861H51.3817V86.3606H53.3559V104.861ZM53.9793 85.1662H53.4598V60.7181H53.9793H55.486V85.1662H53.9793ZM53.3559 59.5237H51.9531V54.8194H53.3559V59.5237ZM31.7434 53.625V52.4306H50.992V53.625H31.7434ZM32.2889 49.4325C33.3539 47.7994 35.2762 44.265 35.458 39.9262H47.2774C47.4332 44.265 49.3815 47.7994 50.4465 49.4325H32.2889ZM47.2774 38.7319H45.5629V36.7819C45.5629 36.6112 45.433 36.4894 45.2512 36.4894C45.0694 36.4894 44.9395 36.6112 44.9395 36.7819V38.7319H42.9912V36.7819C42.9912 36.6112 42.8613 36.4894 42.6795 36.4894C42.4977 36.4894 42.3678 36.6112 42.3678 36.7819V38.7319H40.4196V36.7819C40.4196 36.6112 40.2897 36.4894 40.1078 36.4894C39.926 36.4894 39.7961 36.6112 39.7961 36.7819V38.7319H37.8479V36.7819C37.8479 36.6112 37.718 36.4894 37.5361 36.4894C37.3543 36.4894 37.2244 36.6112 37.2244 36.7819V38.7319H35.51V35.3681H47.2774V38.7319ZM36.0295 30.2494H35.458V28.7381C36.0035 28.3969 36.5231 28.0556 37.0686 27.7144C36.627 28.9819 36.2373 29.8106 36.0295 30.2494ZM11.9752 70.7606C11.9752 53.8931 20.7293 38.9025 34.1852 29.5912V30.8344V39.3412C34.1852 39.3656 34.1852 39.3656 34.1852 39.39C34.1592 45.0937 30.6264 49.6275 30.6004 49.6762C30.5744 49.725 30.5485 49.7494 30.5225 49.7981V49.8225C30.4965 49.8712 30.4965 49.8956 30.4965 49.9444C30.4965 49.9687 30.4965 49.9687 30.4965 49.9931V50.0175V53.625H28.7821C28.4184 53.625 28.1586 53.8931 28.1586 54.21V59.4994H26.652C26.2883 59.4994 26.0285 59.7675 26.0285 60.0844V85.7269C26.0285 86.0681 26.3143 86.3119 26.652 86.3119H28.1586V107.006C18.1576 97.7925 11.9752 84.9469 11.9752 70.7606ZM54.6287 120.705V86.3606H56.1354C56.499 86.3606 56.7588 86.0925 56.7588 85.7756V60.1087C56.7588 59.7675 56.4731 59.5237 56.1354 59.5237H54.6287V54.2344C54.6287 53.8931 54.343 53.6494 54.0053 53.6494H52.2908V50.0419V50.0175C52.2908 49.9931 52.2908 49.9931 52.2908 49.9687C52.2908 49.92 52.2649 49.8956 52.2649 49.8469V49.8225C52.2389 49.7737 52.2129 49.725 52.1869 49.7006C52.161 49.6519 48.6022 45.1181 48.6022 39.3656V30.8587V25.935C48.6022 25.5937 48.3164 25.35 47.9787 25.35C47.6151 25.35 47.3553 25.6181 47.3553 25.935V30.2494H46.7838C46.3942 29.4937 45.433 27.3731 44.5758 23.985C51.3037 21.1819 58.733 19.6219 66.552 19.6219C92.4766 19.6219 114.219 36.6844 119.726 59.475C119.518 60.5719 119.778 61.6687 120.375 62.595C120.375 62.6194 120.375 62.6681 120.401 62.6925C117.31 61.7175 114.037 61.0837 110.66 60.8644C111.933 60.06 112.764 58.695 112.764 57.135C112.764 54.6487 110.608 52.6256 107.959 52.6256C105.309 52.6256 103.153 54.6487 103.153 57.135C103.153 58.6706 103.984 60.0356 105.257 60.8644C101.932 61.0837 98.7369 61.6931 95.6977 62.6194C95.8535 62.3756 96.0094 62.1319 96.1133 61.8881C96.6069 60.7669 96.6069 59.5481 96.1133 58.4512C95.6198 57.33 94.7106 56.4769 93.5156 56.0137C92.3207 55.5506 91.0219 55.5506 89.853 56.0137C88.658 56.4769 87.7488 57.33 87.2553 58.4512C86.7617 59.5725 86.7617 60.7912 87.2553 61.8881C87.7488 63.0094 88.658 63.8625 89.853 64.3256C90.1387 64.4475 90.4244 64.5206 90.7102 64.5694C87.6969 65.9587 84.9174 67.7137 82.3977 69.7856C82.6834 68.3719 82.2678 66.8362 81.0729 65.7394C79.2026 63.9844 76.1633 63.9844 74.293 65.7394C72.4227 67.4944 72.4227 70.3462 74.293 72.1012C75.2281 72.9787 76.449 73.4175 77.6959 73.4175C78.0076 73.4175 78.3194 73.3931 78.6311 73.3444C76.501 75.6356 74.6567 78.195 73.176 80.9494C73.124 80.6812 73.0201 80.4131 72.9162 80.145C72.4227 79.0237 71.5135 78.1706 70.3186 77.7075C69.1237 77.2444 67.8248 77.2444 66.6559 77.7075C65.461 78.1706 64.5518 79.0237 64.0582 80.145C63.5647 81.2662 63.5647 82.485 64.0582 83.5819C64.5518 84.7031 65.461 85.5562 66.6559 86.0194C67.2533 86.2631 67.8768 86.3606 68.5002 86.3606C69.1237 86.3606 69.7471 86.2387 70.3186 86.0194C70.6043 85.9219 70.8641 85.7756 71.0979 85.6294C70.0588 88.53 69.3834 91.6012 69.1496 94.7944C68.2924 93.6 66.8377 92.82 65.1752 92.82C62.5256 92.82 60.3695 94.8431 60.3695 97.3294C60.3695 99.8156 62.5256 101.839 65.1752 101.839C66.8377 101.839 68.2924 101.059 69.1496 99.8644C69.3834 102.96 70.0069 105.982 71.0199 108.834C70.7861 108.688 70.5264 108.566 70.2406 108.444C69.0457 107.981 67.7469 107.981 66.5779 108.444C65.383 108.907 64.4738 109.761 63.9803 110.882C63.4867 112.003 63.4867 113.222 63.9803 114.319C64.7336 116.049 66.526 117.097 68.4223 117.097C69.0197 117.097 69.6432 117 70.2406 116.756C71.7473 116.171 72.7863 114.928 73.0981 113.539C74.4748 116.171 76.1893 118.609 78.1895 120.827C74.4489 121.582 70.5524 121.997 66.5779 121.997C62.4217 121.924 58.4473 121.509 54.6287 120.705ZM69.0457 98.5969C68.4483 100.084 66.9416 101.156 65.1492 101.156C62.8633 101.156 60.993 99.4012 60.993 97.2562C60.993 95.1112 62.8633 93.3562 65.1492 93.3562C66.9416 93.3562 68.4483 94.4287 69.0457 95.9156C69.0197 96.3544 69.0197 96.8175 69.0197 97.2562C69.0197 97.695 69.0197 98.1581 69.0457 98.5969ZM102.4 109.224L104.114 102.399C105.101 103.057 106.296 103.447 107.595 103.496V104.349C105.984 106.08 104.244 107.713 102.4 109.224ZM107.907 91.6012C110.816 91.6012 113.258 93.5512 113.829 96.1594C112.401 98.4994 110.764 100.742 108.972 102.838C108.634 102.887 108.27 102.936 107.933 102.936C104.608 102.936 101.906 100.401 101.906 97.2806C101.88 94.1362 104.582 91.6012 107.907 91.6012ZM108.218 103.496C108.27 103.496 108.322 103.496 108.348 103.496C108.296 103.545 108.244 103.594 108.218 103.642V103.496ZM118.141 87.2137L114.427 90.6994C114.297 90.8212 114.297 91.0162 114.427 91.1137C114.479 91.1625 114.583 91.2112 114.661 91.2112C114.738 91.2112 114.816 91.1869 114.894 91.1137L117.648 88.53C116.713 90.9187 115.57 93.21 114.271 95.4281C113.466 92.9662 111.076 91.1625 108.244 91.0406V79.9256C108.244 79.755 108.114 79.6331 107.933 79.6331C107.751 79.6331 107.621 79.755 107.621 79.9256V91.0406C106.946 91.065 106.322 91.1869 105.699 91.4062L103.023 85.3125C102.945 85.1662 102.763 85.0931 102.607 85.1419C102.452 85.215 102.374 85.3856 102.426 85.5319L105.101 91.6256C103.698 92.235 102.581 93.3075 101.906 94.5994L86.528 88.5787C86.3721 88.5056 86.1903 88.5787 86.1123 88.7494C86.0344 88.8956 86.1123 89.0662 86.2942 89.1394L101.672 95.16C101.413 95.8181 101.257 96.5494 101.257 97.2806C101.257 99.1819 102.166 100.864 103.569 102.009L101.594 109.882C96.6069 113.831 90.8401 116.976 84.5278 119.047C81.5664 116.244 79.1766 112.954 77.5141 109.273L84.8655 106.446C85.0213 106.372 85.0992 106.202 85.0473 106.056C84.9694 105.909 84.7875 105.836 84.6317 105.885L77.2803 108.712C75.7737 105.178 74.9164 101.302 74.9164 97.2562C74.9164 93.1369 75.7737 89.2125 77.3582 85.605L81.3067 87.1406C81.3586 87.165 81.3846 87.165 81.4365 87.165C81.5664 87.165 81.6703 87.0919 81.7223 86.97C81.8002 86.8237 81.7223 86.6531 81.5405 86.58L77.592 85.0444C79.2285 81.51 81.5405 78.2925 84.3719 75.5869L87.3852 78.4144C87.4371 78.4631 87.541 78.5119 87.619 78.5119C87.6969 78.5119 87.7748 78.4875 87.8528 78.4144C87.9826 78.2925 87.9826 78.0975 87.8528 78L84.8395 75.1725C87.7748 72.4669 91.2557 70.2731 95.1002 68.7375L100.607 81.315C100.659 81.4369 100.763 81.51 100.893 81.51C100.945 81.51 100.971 81.51 101.023 81.4856C101.179 81.4125 101.257 81.2419 101.205 81.0956L95.6977 68.5181C99.3863 67.1287 103.413 66.3487 107.621 66.3V75.8794C107.621 76.05 107.751 76.1719 107.933 76.1719C108.114 76.1719 108.244 76.05 108.244 75.8794V66.3C112.505 66.3487 116.583 67.1287 120.323 68.5669L119.284 70.9312C119.206 71.0775 119.284 71.2481 119.466 71.3212C119.518 71.3456 119.544 71.3456 119.596 71.3456C119.726 71.3456 119.83 71.2725 119.882 71.1506L120.921 68.7862C120.947 68.7862 120.973 68.8106 120.999 68.8106C121.025 69.4444 121.051 70.0781 121.051 70.7362C121.025 76.5131 120.012 82.0462 118.141 87.2137Z" fill="#000639"/>
</g>
<defs>
<clipPath id="clip0_186_11">
<rect width="134" height="127" fill="white"/>
</clipPath>
</defs>
</svg>
