<svg width="187" height="175" viewBox="0 0 187 175" fill="none" xmlns="http://www.w3.org/2000/svg">
<g clip-path="url(#clip0_191_69)">
<path d="M57.7477 87.1598C49.8087 87.1598 43.3561 93.1384 43.3561 100.494C43.3561 107.85 49.8087 113.828 57.7477 113.828C65.6866 113.828 72.1393 107.85 72.1393 100.494C72.1393 93.1384 65.6866 87.1598 57.7477 87.1598ZM57.7477 112.216C50.7875 112.216 45.0961 106.977 45.0961 100.494C45.0961 94.0453 50.7513 88.772 57.7477 88.772C64.7441 88.772 70.3992 94.0117 70.3992 100.494C70.363 106.977 64.7078 112.216 57.7477 112.216Z" fill="#D9D9D9"/>
<path d="M51.2225 45.612C51.2225 45.8471 51.4038 46.015 51.6575 46.015H63.8378C64.0916 46.015 64.2728 45.8471 64.2728 45.612C64.2728 45.3769 64.0916 45.2089 63.8378 45.2089H51.6575C51.4038 45.2089 51.2225 45.3769 51.2225 45.612Z" fill="#D9D9D9"/>
<path d="M53.6513 58.3081C53.3976 58.3081 53.2163 58.476 53.2163 58.7111V60.3569C53.2163 60.592 53.3976 60.76 53.6513 60.76C53.9051 60.76 54.0863 60.592 54.0863 60.3569V58.7111C54.0863 58.5096 53.8688 58.3081 53.6513 58.3081Z" fill="#D9D9D9"/>
<path d="M57.7476 58.3081C57.4939 58.3081 57.3126 58.476 57.3126 58.7111V60.3569C57.3126 60.592 57.4939 60.76 57.7476 60.76C58.0014 60.76 58.1826 60.592 58.1826 60.3569V58.7111C58.1826 58.5096 58.0014 58.3081 57.7476 58.3081Z" fill="#D9D9D9"/>
<path d="M61.844 58.3081C61.5902 58.3081 61.4089 58.476 61.4089 58.7111V60.3569C61.4089 60.592 61.5902 60.76 61.844 60.76C62.0977 60.76 62.279 60.592 62.279 60.3569V58.7111C62.279 58.5096 62.0977 58.3081 61.844 58.3081Z" fill="#D9D9D9"/>
<path d="M51.585 63.0103C51.3313 63.0103 51.15 63.1783 51.15 63.4134V65.0592C51.15 65.2943 51.3313 65.4622 51.585 65.4622C51.8388 65.4622 52.02 65.2943 52.02 65.0592V63.4134C52.02 63.1783 51.8388 63.0103 51.585 63.0103Z" fill="#D9D9D9"/>
<path d="M55.6814 63.0103C55.4276 63.0103 55.2463 63.1783 55.2463 63.4134V65.0592C55.2463 65.2943 55.4276 65.4622 55.6814 65.4622C55.9351 65.4622 56.1164 65.2943 56.1164 65.0592V63.4134C56.1164 63.1783 55.9351 63.0103 55.6814 63.0103Z" fill="#D9D9D9"/>
<path d="M59.7777 63.0103C59.5239 63.0103 59.3427 63.1783 59.3427 63.4134V65.0592C59.3427 65.2943 59.5239 65.4622 59.7777 65.4622C60.0314 65.4622 60.2127 65.2943 60.2127 65.0592V63.4134C60.2489 63.1783 60.0314 63.0103 59.7777 63.0103Z" fill="#D9D9D9"/>
<path d="M63.8741 63.0103C63.6203 63.0103 63.4391 63.1783 63.4391 63.4134V65.0592C63.4391 65.2943 63.6203 65.4622 63.8741 65.4622C64.1279 65.4622 64.3091 65.2943 64.3091 65.0592V63.4134C64.3454 63.1783 64.1279 63.0103 63.8741 63.0103Z" fill="#D9D9D9"/>
<path d="M48.7937 125.618C49.0474 125.618 49.2287 125.45 49.2287 125.215V120.244C49.2287 120.008 49.0474 119.841 48.7937 119.841C48.5399 119.841 48.3586 120.008 48.3586 120.244V125.215C48.3586 125.416 48.5399 125.618 48.7937 125.618Z" fill="#D9D9D9"/>
<path d="M54.775 125.618C55.0288 125.618 55.2101 125.45 55.2101 125.215V120.244C55.2101 120.008 55.0288 119.841 54.775 119.841C54.5213 119.841 54.34 120.008 54.34 120.244V125.215C54.3038 125.416 54.5213 125.618 54.775 125.618Z" fill="#D9D9D9"/>
<path d="M60.7202 125.618C60.9739 125.618 61.1552 125.45 61.1552 125.215V120.244C61.1552 120.008 60.9739 119.841 60.7202 119.841C60.4664 119.841 60.2852 120.008 60.2852 120.244V125.215C60.2852 125.416 60.4664 125.618 60.7202 125.618Z" fill="#D9D9D9"/>
<path d="M66.7017 125.618C66.9554 125.618 67.1367 125.45 67.1367 125.215V120.244C67.1367 120.008 66.9554 119.841 66.7017 119.841C66.4479 119.841 66.2667 120.008 66.2667 120.244V125.215C66.2304 125.416 66.4479 125.618 66.7017 125.618Z" fill="#D9D9D9"/>
<path d="M62.9678 100.091H58.1826V93.7094C58.1826 93.4743 58.0014 93.3063 57.7476 93.3063C57.4939 93.3063 57.3126 93.4743 57.3126 93.7094V100.528C57.3126 100.763 57.4939 100.931 57.7476 100.931H62.9678C63.2215 100.931 63.4028 100.763 63.4028 100.528C63.4028 100.293 63.2215 100.091 62.9678 100.091Z" fill="#D9D9D9"/>
<path d="M57.7476 109.496C57.4939 109.496 57.3126 109.664 57.3126 109.899V111.007C57.3126 111.242 57.4939 111.41 57.7476 111.41C58.0014 111.41 58.1826 111.242 58.1826 111.007V109.899C58.1826 109.664 58.0014 109.496 57.7476 109.496Z" fill="#D9D9D9"/>
<path d="M57.7476 91.5262C58.0014 91.5262 58.1826 91.3582 58.1826 91.1231V90.0147C58.1826 89.7796 58.0014 89.6117 57.7476 89.6117C57.4939 89.6117 57.3126 89.7796 57.3126 90.0147V91.1231C57.3126 91.3582 57.4939 91.5262 57.7476 91.5262Z" fill="#D9D9D9"/>
<path d="M47.5974 100.091H46.4011C46.1473 100.091 45.9661 100.259 45.9661 100.494C45.9661 100.729 46.1473 100.897 46.4011 100.897H47.5974C47.8511 100.897 48.0324 100.729 48.0324 100.494C48.0324 100.259 47.8511 100.091 47.5974 100.091Z" fill="#D9D9D9"/>
<path d="M69.0579 100.091H67.8616C67.6079 100.091 67.4266 100.259 67.4266 100.494C67.4266 100.729 67.6079 100.897 67.8616 100.897H69.0579C69.3117 100.897 69.4929 100.729 69.4929 100.494C69.4929 100.259 69.3117 100.091 69.0579 100.091Z" fill="#D9D9D9"/>
<path d="M50.2438 106.876L49.41 107.648C49.2287 107.816 49.2287 108.085 49.41 108.219C49.4825 108.286 49.6275 108.354 49.7362 108.354C49.845 108.354 49.9538 108.32 50.0625 108.219L50.8963 107.447C51.0775 107.279 51.0775 107.01 50.8963 106.876C50.715 106.708 50.425 106.708 50.2438 106.876Z" fill="#D9D9D9"/>
<path d="M65.4328 92.8025L64.5991 93.575C64.4178 93.743 64.4178 94.0117 64.5991 94.146C64.6716 94.2132 64.8166 94.2804 64.9253 94.2804C65.0341 94.2804 65.1428 94.2468 65.2516 94.146L66.0854 93.3735C66.2666 93.2056 66.2666 92.9369 66.0854 92.8025C65.9041 92.6346 65.6141 92.6346 65.4328 92.8025Z" fill="#D9D9D9"/>
<path d="M50.2438 94.1796C50.3163 94.2468 50.4613 94.314 50.57 94.314C50.6788 94.314 50.7875 94.2804 50.8963 94.1796C51.0775 94.0117 51.0775 93.743 50.8963 93.6086L50.0625 92.8361C49.8813 92.6682 49.5912 92.6682 49.4462 92.8361C49.265 93.0041 49.265 93.2728 49.4462 93.4071L50.2438 94.1796Z" fill="#D9D9D9"/>
<path d="M65.2153 106.876C65.0341 106.708 64.7441 106.708 64.5991 106.876C64.4178 107.044 64.4178 107.312 64.5991 107.447L65.4328 108.219C65.5053 108.286 65.6503 108.354 65.7591 108.354C65.8679 108.354 65.9766 108.32 66.0854 108.219C66.2666 108.051 66.2666 107.783 66.0854 107.648L65.2153 106.876Z" fill="#D9D9D9"/>
<path d="M107.955 133.981C107.955 134.216 108.136 134.384 108.39 134.384H124.304C124.558 134.384 124.739 134.216 124.739 133.981C124.739 133.746 124.558 133.578 124.304 133.578H108.39C108.136 133.578 107.955 133.746 107.955 133.981Z" fill="#D9D9D9"/>
<path d="M133.44 134.384H140.508C140.762 134.384 140.943 134.216 140.943 133.981C140.943 133.746 140.762 133.578 140.508 133.578H133.44C133.186 133.578 133.005 133.746 133.005 133.981C133.005 134.216 133.222 134.384 133.44 134.384Z" fill="#D9D9D9"/>
<path d="M127.929 112.418C127.748 112.25 127.458 112.25 127.313 112.418C127.132 112.586 127.132 112.854 127.313 112.989L135.832 120.882C135.905 120.949 136.05 121.016 136.158 121.016C136.267 121.016 136.376 120.983 136.485 120.882C136.666 120.714 136.666 120.445 136.485 120.311L127.929 112.418Z" fill="#D9D9D9"/>
<path d="M135.18 147.685L124.341 157.727C124.159 157.895 124.159 158.164 124.341 158.298C124.413 158.366 124.558 158.433 124.667 158.433C124.776 158.433 124.884 158.399 124.993 158.298L135.832 148.256C136.013 148.088 136.013 147.819 135.832 147.685C135.615 147.517 135.361 147.517 135.18 147.685Z" fill="#D9D9D9"/>
<path d="M138.152 145.501C138.225 145.569 138.37 145.636 138.478 145.636C138.587 145.636 138.696 145.602 138.805 145.501L143.807 140.866C143.988 140.698 143.988 140.43 143.807 140.295C143.626 140.127 143.336 140.127 143.191 140.295L138.188 144.93C137.971 145.098 137.971 145.367 138.152 145.501Z" fill="#D9D9D9"/>
<path d="M123.906 144.158C123.978 144.326 124.123 144.427 124.304 144.427C124.377 144.427 124.413 144.427 124.486 144.393L131.047 141.908C131.264 141.807 131.373 141.572 131.301 141.37C131.192 141.169 130.938 141.068 130.721 141.135L124.159 143.621C123.906 143.688 123.797 143.923 123.906 144.158Z" fill="#D9D9D9"/>
<path d="M134.309 140.161C134.382 140.329 134.527 140.43 134.708 140.43C134.781 140.43 134.817 140.43 134.889 140.396L141.451 137.911C141.668 137.81 141.777 137.575 141.705 137.373C141.596 137.172 141.342 137.071 141.125 137.138L134.563 139.624C134.346 139.724 134.237 139.96 134.309 140.161Z" fill="#D9D9D9"/>
<path d="M164.76 102.476C164.543 102.375 164.289 102.476 164.18 102.711L155.262 122.494C155.154 122.696 155.262 122.931 155.516 123.031C155.589 123.065 155.625 123.065 155.697 123.065C155.879 123.065 156.024 122.964 156.096 122.796L165.014 103.013C165.123 102.778 165.014 102.543 164.76 102.476Z" fill="#D9D9D9"/>
<path d="M146.852 142.243C146.635 142.143 146.381 142.244 146.272 142.479L143.553 148.524C143.445 148.726 143.553 148.961 143.807 149.062C143.88 149.095 143.916 149.095 143.988 149.095C144.17 149.095 144.315 148.995 144.387 148.827L147.106 142.781C147.179 142.546 147.07 142.311 146.852 142.243Z" fill="#D9D9D9"/>
<path d="M92.8022 23.7464C81.637 23.7464 71.0517 25.896 61.409 29.7586C60.684 25.9632 60.1402 21.3281 60.1402 15.8869C60.1402 15.4167 59.7414 15.0808 59.2702 15.0808H58.6539V1.47786C58.6539 1.00763 58.2552 0.671753 57.7839 0.671753C57.2764 0.671753 56.9139 1.04122 56.9139 1.47786V15.0137H56.2976C55.7901 15.0137 55.4276 15.3831 55.4276 15.8198C55.4276 23.2426 54.4126 29.154 53.2888 33.4868C52.02 34.1586 50.7875 34.8639 49.5549 35.6029C49.5187 35.1662 49.1562 34.8639 48.6849 34.8639C48.1774 34.8639 47.8149 35.2334 47.8149 35.67V36.7112C26.9707 50.0119 13.2678 72.3141 13.2678 97.4712C13.1591 138.213 48.9024 171.297 92.8022 171.297C136.702 171.297 172.445 138.213 172.445 97.5048C172.445 56.8302 136.702 23.7464 92.8022 23.7464ZM150.586 89.7461C124.232 89.7461 102.807 109.596 102.807 134.015C102.807 145.871 107.883 156.653 116.112 164.613C114.408 165.117 112.704 165.587 110.964 165.956C102.88 157.358 98.0949 146.14 98.0949 133.981C98.0949 107.144 121.658 85.3125 150.622 85.3125C156.785 85.3125 162.73 86.3201 168.24 88.1339C168.458 89.7461 168.639 91.3583 168.748 93.0041C163.129 90.9216 157.003 89.7461 150.586 89.7461ZM97.5874 160.011C94.6148 161.153 91.2435 159.81 90.0109 157.089C89.4309 155.746 89.4309 154.301 90.0109 152.958C90.5909 151.648 91.7147 150.607 93.1648 150.069C93.8898 149.801 94.6148 149.666 95.3761 149.666C96.1373 149.666 96.8986 149.801 97.6236 150.069C98.3849 150.372 99.0736 150.808 99.6174 151.346C100.089 152.555 100.632 153.73 101.176 154.872C101.249 157.056 99.8712 159.138 97.5874 160.011ZM97.7324 117.691C96.2823 118.228 94.7235 118.228 93.2735 117.691C91.8597 117.154 90.7359 116.112 90.1559 114.769C89.5759 113.425 89.5759 111.981 90.1559 110.638C91.0985 108.589 93.2373 107.346 95.5211 107.346C96.2823 107.346 97.0073 107.48 97.7686 107.749C100.089 108.656 101.43 110.772 101.321 112.955C100.741 114.097 100.234 115.239 99.7624 116.415C99.1824 116.918 98.4936 117.389 97.7324 117.691ZM113.61 97.2025C112.668 98.0086 111.725 98.8819 110.855 99.7552C108.716 100.696 106.034 100.36 104.258 98.714C102.01 96.6315 102.01 93.2056 104.258 91.0896C105.381 90.0484 106.868 89.511 108.354 89.511C109.84 89.511 111.326 90.0484 112.45 91.0896C114.263 92.769 114.662 95.2208 113.61 97.2025ZM125.682 87.8316C124.268 87.2942 123.144 86.253 122.564 84.9095C121.984 83.5659 121.984 82.1217 122.564 80.7782C123.144 79.4683 124.268 78.427 125.718 77.8896C126.443 77.6209 127.168 77.4866 127.929 77.4866C128.691 77.4866 129.452 77.6209 130.177 77.8896C131.591 78.427 132.714 79.4683 133.294 80.8118C133.874 82.1553 133.874 83.5995 133.294 84.943C132.968 85.682 132.497 86.2865 131.881 86.8239C130.612 87.2606 129.343 87.7308 128.147 88.2682C127.277 88.2682 126.443 88.1339 125.682 87.8316ZM150.586 83.7003C149.897 83.7003 149.245 83.7003 148.592 83.7339C146.381 82.9614 144.786 81.0133 144.786 78.6957C144.786 75.74 147.396 73.3217 150.586 73.3217C153.776 73.3217 156.386 75.74 156.386 78.6957C156.386 81.0133 154.791 82.995 152.58 83.7339C151.927 83.7339 151.275 83.7003 150.586 83.7003ZM57.1314 16.693H58.3639C58.5089 30.2288 61.844 38.6929 63.2578 41.6822H58.6539V35.7372C58.6539 35.267 58.2552 34.9311 57.7839 34.9311C57.2764 34.9311 56.9139 35.3006 56.9139 35.7372V41.6822H52.31C53.6513 38.6929 56.9864 30.2288 57.1314 16.693ZM65.9766 43.328V47.9631H49.4824V43.328H50.8237H64.6353H65.9766ZM71.1605 71.4072H44.2986V69.7614H71.1605V71.4072ZM41.761 117.355V83.6667H73.7343V117.355H41.761ZM74.4593 164.512H71.7042V150.204H74.4593V164.512ZM74.4593 149.364H71.7042V145.334H74.4593V149.364ZM70.8342 149.364H67.1366V145.334H70.8342V149.364ZM44.6611 127.834H48.3587V144.494H44.6611V127.834ZM66.2304 127.834V144.494H61.1552V127.834H66.2304ZM60.2852 144.494H55.2101V127.834H60.2852V144.494ZM54.3038 144.494H49.2287V127.834H54.3038V144.494ZM48.3587 145.334V149.364H44.6611V145.334H48.3587ZM49.2287 145.334H54.3038V149.364H49.2287V145.334ZM55.2101 145.334H60.2852V149.364H55.2101V145.334ZM61.1552 145.334H66.2304V149.364H61.1552V145.334ZM67.1366 144.494V127.834H70.8342V144.494H67.1366ZM70.8342 127.028H44.6611V119.001H70.8342V127.028ZM71.6317 82.0209H68.1879V77.6881C68.1879 77.453 68.0066 77.2851 67.7529 77.2851C67.4991 77.2851 67.3179 77.453 67.3179 77.6881V82.0209H61.5177V77.6881C61.5177 77.453 61.3365 77.2851 61.0827 77.2851C60.829 77.2851 60.6477 77.453 60.6477 77.6881V82.0209H54.8476V77.6881C54.8476 77.453 54.6663 77.2851 54.4126 77.2851C54.1588 77.2851 53.9776 77.453 53.9776 77.6881V82.0209H48.1774V77.6881C48.1774 77.453 47.9962 77.2851 47.7424 77.2851C47.4886 77.2851 47.3074 77.453 47.3074 77.6881V82.0209H43.8636V75.5385H71.5955V82.0209H71.6317ZM42.9935 75.5385V82.0209H41.036V75.5385H42.9935ZM40.1297 83.6667H40.8547V117.355H40.1297H38.0634V83.6667H40.1297ZM43.7911 119.001V144.494H41.036V119.001H43.7911ZM41.036 145.334H43.7911V149.364H41.326C41.2172 149.297 41.1447 149.196 41.036 149.129V145.334ZM43.7911 150.204V151.379C43.2835 150.976 42.8123 150.607 42.3048 150.204H43.7911ZM44.6611 150.204H48.3587V154.704C47.0899 153.865 45.8574 152.992 44.6611 152.085V150.204ZM49.2287 150.204H54.3038V158.332C52.5638 157.391 50.86 156.384 49.2287 155.309V150.204ZM55.2101 150.204H60.2852V161.22C58.5452 160.448 56.8776 159.642 55.2101 158.769V150.204ZM61.1552 150.204H66.2304V163.572C64.4903 162.967 62.8228 162.329 61.1552 161.624V150.204ZM67.1366 150.204H70.8342V164.512H69.1304C68.4779 164.311 67.7891 164.109 67.1366 163.874V150.204ZM74.4593 165.318V165.923C73.6255 165.721 72.828 165.52 71.9942 165.318H74.4593ZM74.4593 144.494H71.7042V119.001H74.4593V144.494ZM75.3293 117.355H74.6043V83.6667H75.3293H77.4319V117.355H75.3293ZM74.4593 82.0209H72.5018V75.5385H74.4593V82.0209ZM44.2986 73.8927V72.2469H71.1605V73.8927H44.2986ZM45.0598 68.1157C46.5461 65.8653 49.2287 60.9951 49.4824 55.0165H65.9766C66.1941 60.9951 68.9129 65.8653 70.3992 68.1157H45.0598ZM65.9766 53.3707H63.584V50.6837C63.584 50.4486 63.4028 50.2806 63.149 50.2806C62.8953 50.2806 62.714 50.4486 62.714 50.6837V53.3707H59.9952V50.6837C59.9952 50.4486 59.8139 50.2806 59.5602 50.2806C59.3064 50.2806 59.1252 50.4486 59.1252 50.6837V53.3707H56.4064V50.6837C56.4064 50.4486 56.2251 50.2806 55.9714 50.2806C55.7176 50.2806 55.5363 50.4486 55.5363 50.6837V53.3707H52.8175V50.6837C52.8175 50.4486 52.6363 50.2806 52.3825 50.2806C52.1288 50.2806 51.9475 50.4486 51.9475 50.6837V53.3707H49.5549V48.7356H65.9766V53.3707ZM50.28 41.6822H49.4824V39.5998C50.2437 39.1296 50.9687 38.6593 51.73 38.1891C51.1137 39.9357 50.57 41.0776 50.28 41.6822ZM16.7117 97.5048C16.7117 74.2622 28.9282 53.6058 47.7062 40.7753V42.4883V54.2104C47.7062 54.244 47.7062 54.244 47.7062 54.2776C47.6699 62.1371 42.7398 68.3844 42.7035 68.4515C42.6673 68.5187 42.631 68.5523 42.5948 68.6195V68.6531C42.5585 68.7202 42.5585 68.7538 42.5585 68.821C42.5585 68.8546 42.5585 68.8546 42.5585 68.8882V68.9218V73.8927H40.166C39.6585 73.8927 39.296 74.2622 39.296 74.6988V81.9873H37.1934C36.6859 81.9873 36.3234 82.3568 36.3234 82.7934V118.128C36.3234 118.598 36.7221 118.934 37.1934 118.934H39.296V147.45C25.3394 134.753 16.7117 117.053 16.7117 97.5048ZM76.2356 166.326V119.001H78.3381C78.8457 119.001 79.2082 118.631 79.2082 118.195V82.827C79.2082 82.3568 78.8094 82.0209 78.3381 82.0209H76.2356V74.7324C76.2356 74.2622 75.8368 73.9263 75.3656 73.9263H72.973V68.9553V68.9218C72.973 68.8882 72.973 68.8882 72.973 68.8546C72.973 68.7874 72.9368 68.7538 72.9368 68.6866V68.6531C72.9005 68.5859 72.8643 68.5187 72.828 68.4851C72.7918 68.4179 67.8254 62.1706 67.8254 54.244V42.5219V35.7372C67.8254 35.267 67.4266 34.9311 66.9554 34.9311C66.4479 34.9311 66.0853 35.3006 66.0853 35.7372V41.6822H65.2878C64.7441 40.641 63.4028 37.7189 62.2065 33.0502C71.5955 29.1876 81.9632 27.038 92.8747 27.038C129.053 27.038 159.395 50.5493 167.08 81.9537C166.79 83.4652 167.153 84.9766 167.987 86.253C167.987 86.2865 167.987 86.3537 168.023 86.3873C163.709 85.0438 159.141 84.1705 154.429 83.8682C156.205 82.7598 157.365 80.8789 157.365 78.7293C157.365 75.3034 154.356 72.5156 150.659 72.5156C146.961 72.5156 143.952 75.3034 143.952 78.7293C143.952 80.8453 145.112 82.7263 146.889 83.8682C142.248 84.1705 137.79 85.0102 133.548 86.2865C133.766 85.9507 133.983 85.6148 134.128 85.2789C134.817 83.7339 134.817 82.0545 134.128 80.5431C133.439 78.998 132.171 77.8225 130.503 77.1843C128.836 76.5461 127.023 76.5461 125.392 77.1843C123.724 77.8225 122.455 78.998 121.767 80.5431C121.078 82.0881 121.078 83.7675 121.767 85.2789C122.455 86.8239 123.724 87.9995 125.392 88.6377C125.791 88.8056 126.189 88.9064 126.588 88.9735C122.383 90.888 118.504 93.3063 114.988 96.1613C115.387 94.2132 114.807 92.0972 113.139 90.5858C110.529 88.1675 106.288 88.1675 103.678 90.5858C101.067 93.0041 101.067 96.9338 103.678 99.3521C104.983 100.561 106.686 101.166 108.426 101.166C108.861 101.166 109.296 101.132 109.731 101.065C106.759 104.222 104.185 107.749 102.119 111.544C102.046 111.175 101.901 110.805 101.756 110.436C101.067 108.891 99.7987 107.715 98.1311 107.077C96.4636 106.439 94.651 106.439 93.0198 107.077C91.3522 107.715 90.0834 108.891 89.3947 110.436C88.7059 111.981 88.7059 113.66 89.3947 115.172C90.0834 116.717 91.3522 117.892 93.0198 118.531C93.8535 118.867 94.7235 119.001 95.5936 119.001C96.4636 119.001 97.3336 118.833 98.1311 118.531C98.5299 118.396 98.8924 118.195 99.2187 117.993C97.7686 121.99 96.8261 126.222 96.4998 130.622C95.3036 128.976 93.2735 127.902 90.9534 127.902C87.2559 127.902 84.247 130.689 84.247 134.115C84.247 137.541 87.2559 140.329 90.9534 140.329C93.2735 140.329 95.3036 139.254 96.4998 137.608C96.8261 141.874 97.6961 146.039 99.1099 149.969C98.7836 149.767 98.4211 149.599 98.0224 149.431C96.3548 148.793 94.5423 148.793 92.911 149.431C91.2435 150.069 89.9747 151.245 89.2859 152.79C88.5971 154.335 88.5971 156.014 89.2859 157.526C90.3372 159.911 92.8385 161.355 95.4848 161.355C96.3186 161.355 97.1886 161.22 98.0224 160.885C100.125 160.078 101.575 158.366 102.01 156.451C103.931 160.078 106.324 163.437 109.115 166.494C103.895 167.535 98.4574 168.106 92.911 168.106C87.1109 168.005 81.5645 167.434 76.2356 166.326ZM96.3548 135.862C95.5211 137.911 93.4185 139.389 90.9172 139.389C87.7271 139.389 85.1171 136.97 85.1171 134.015C85.1171 131.059 87.7271 128.641 90.9172 128.641C93.4185 128.641 95.5211 130.118 96.3548 132.167C96.3186 132.772 96.3186 133.41 96.3186 134.015C96.3186 134.619 96.3186 135.257 96.3548 135.862ZM142.901 150.506L145.294 141.102C146.671 142.008 148.339 142.546 150.151 142.613V143.789C147.904 146.173 145.475 148.424 142.901 150.506ZM150.586 126.222C154.646 126.222 158.054 128.909 158.851 132.503C156.858 135.727 154.574 138.818 152.072 141.706C151.601 141.773 151.094 141.84 150.622 141.84C145.982 141.84 142.212 138.347 142.212 134.048C142.176 129.715 145.946 126.222 150.586 126.222ZM151.021 142.613C151.094 142.613 151.166 142.613 151.202 142.613C151.13 142.68 151.057 142.747 151.021 142.814V142.613ZM164.869 120.176L159.685 124.979C159.504 125.147 159.504 125.416 159.685 125.55C159.758 125.618 159.903 125.685 160.011 125.685C160.12 125.685 160.229 125.651 160.338 125.55L164.18 121.99C162.875 125.282 161.28 128.439 159.468 131.495C158.344 128.103 155.009 125.618 151.057 125.45V110.134C151.057 109.899 150.876 109.731 150.622 109.731C150.369 109.731 150.187 109.899 150.187 110.134V125.45C149.245 125.483 148.375 125.651 147.505 125.953L143.771 117.557C143.662 117.355 143.408 117.254 143.191 117.321C142.973 117.422 142.865 117.657 142.937 117.859L146.671 126.256C144.714 127.095 143.155 128.573 142.212 130.353L120.752 122.057C120.534 121.957 120.28 122.057 120.172 122.292C120.063 122.494 120.172 122.729 120.425 122.83L141.886 131.126C141.523 132.033 141.306 133.04 141.306 134.048C141.306 136.668 142.575 138.985 144.532 140.564L141.777 151.413C134.817 156.854 126.769 161.187 117.96 164.042C113.828 160.179 110.493 155.645 108.173 150.573L118.432 146.677C118.649 146.576 118.758 146.341 118.685 146.14C118.577 145.938 118.323 145.837 118.105 145.905L107.846 149.801C105.744 144.93 104.548 139.59 104.548 134.015C104.548 128.338 105.744 122.931 107.955 117.96L113.465 120.076C113.538 120.109 113.574 120.109 113.647 120.109C113.828 120.109 113.973 120.008 114.045 119.841C114.154 119.639 114.045 119.404 113.792 119.303L108.281 117.187C110.565 112.317 113.792 107.883 117.743 104.155L121.948 108.051C122.02 108.118 122.165 108.186 122.274 108.186C122.383 108.186 122.492 108.152 122.6 108.051C122.782 107.883 122.782 107.615 122.6 107.48L118.395 103.584C122.492 99.8559 127.349 96.833 132.714 94.717L140.4 112.048C140.472 112.216 140.617 112.317 140.798 112.317C140.871 112.317 140.907 112.317 140.98 112.283C141.197 112.183 141.306 111.947 141.233 111.746L133.548 94.4147C138.696 92.5003 144.315 91.4254 150.187 91.3583V104.558C150.187 104.793 150.369 104.961 150.622 104.961C150.876 104.961 151.057 104.793 151.057 104.558V91.3583C157.003 91.4254 162.694 92.5002 167.914 94.4819L166.464 97.7399C166.355 97.9414 166.464 98.1766 166.718 98.2773C166.79 98.3109 166.827 98.3109 166.899 98.3109C167.08 98.3109 167.225 98.2101 167.298 98.0422L168.748 94.7842C168.784 94.7842 168.82 94.8178 168.857 94.8178C168.893 95.6911 168.929 96.5644 168.929 97.4712C168.893 105.431 167.479 113.056 164.869 120.176Z" fill="#D9D9D9"/>
</g>
<defs>
<clipPath id="clip0_191_69">
<rect width="187" height="175" fill="white"/>
</clipPath>
</defs>
</svg>
