<svg width="244" height="187" viewBox="0 0 244 187" fill="none" xmlns="http://www.w3.org/2000/svg">
<rect width="244" height="187" rx="50" fill="#A8DADC"/>
<g clip-path="url(#clip0_312_4)">
<path fill-rule="evenodd" clip-rule="evenodd" d="M118.295 36.7908C120.279 35.7385 122.721 35.7385 124.701 36.7908C134.501 41.9915 163.992 57.6459 173.795 62.8466C175.779 63.8961 177 65.8405 177 67.9451C177 78.3464 177 109.653 177 120.054C177 122.158 175.779 124.103 173.795 125.155C163.995 130.356 134.504 146.01 124.701 151.211C122.718 152.263 120.276 152.263 118.295 151.211C108.495 146.01 79.0045 130.356 69.2015 125.155C67.221 124.103 66 122.161 66 120.057C66 109.655 66 78.3492 66 67.9478C66 65.8433 67.221 63.8989 69.2044 62.8466C79.0016 57.6459 108.498 41.9915 118.295 36.7908Z" fill="#004482"/>
<path fill-rule="evenodd" clip-rule="evenodd" d="M66.888 122.736C66.111 121.752 66 120.819 66 119.562C66 109.222 66 78.0949 66 67.7516C66 65.6581 67.2181 63.7248 69.1956 62.6808C78.9607 57.5105 108.352 41.9472 118.117 36.7741C120.095 35.7273 122.773 35.7494 124.751 36.7962C134.516 41.9665 163.808 57.3972 173.573 62.5675C174.362 62.9873 174.964 63.4928 175.501 64.1584L66.888 122.736Z" fill="#659AD2"/>
<path fill-rule="evenodd" clip-rule="evenodd" d="M121.5 55.3341C144.071 55.3341 162.395 72.6595 162.395 94.0007C162.395 115.342 144.071 132.667 121.5 132.667C98.9292 132.667 80.6055 115.342 80.6055 94.0007C80.6055 72.6595 98.9292 55.3341 121.5 55.3341ZM121.5 74.6674C132.784 74.6674 141.947 83.3288 141.947 94.0007C141.947 104.67 132.784 113.334 121.5 113.334C110.216 113.334 101.053 104.67 101.053 94.0007C101.053 83.3288 110.213 74.6674 121.5 74.6674Z" fill="white"/>
<path fill-rule="evenodd" clip-rule="evenodd" d="M175.495 64.186C177.002 65.52 176.973 67.5307 176.973 69.1133C176.973 79.5947 176.88 109.407 176.999 119.888C177.011 120.982 176.628 122.134 176.056 123.001L120.311 94.0008L175.495 64.186Z" fill="#00599C"/>
</g>
<defs>
<clipPath id="clip0_312_4">
<rect width="111" height="116" fill="white" transform="translate(66 36)"/>
</clipPath>
</defs>
</svg>
