<svg width="245" height="188" viewBox="0 0 245 188" fill="none" xmlns="http://www.w3.org/2000/svg">
<rect width="244" height="188" rx="50" fill="#A8DADC"/>
<path d="M94.8855 93.4786C94.8855 86.5469 92.9313 82.9883 89.023 82.7934C87.4679 82.7192 85.9495 82.9698 84.4724 83.5497C83.2935 83.9766 82.4999 84.3988 82.0824 84.8256V101.371C84.5825 102.957 86.8027 103.695 88.7386 103.579C92.835 103.305 94.8855 99.9416 94.8855 93.4786ZM99.7067 93.7662C99.7067 97.2877 98.8902 100.211 97.248 102.535C95.4176 105.166 92.8809 106.521 89.6377 106.595C87.1926 106.674 84.6742 105.899 82.0824 104.275V119.312L77.8896 117.8V84.422C78.5777 83.5683 79.4631 82.8352 80.5365 82.2135C83.032 80.7427 86.0642 79.9865 89.6331 79.9493L89.6927 80.0097C92.9543 79.9679 95.4681 81.3227 97.2342 84.0694C98.881 86.5887 99.7067 89.8179 99.7067 93.7662Z" fill="#646464"/>
<path d="M125.331 103.635C125.331 108.358 124.863 111.629 123.927 113.448C122.987 115.266 121.198 116.719 118.555 117.8C116.413 118.653 114.097 119.117 111.61 119.196L110.918 116.524C113.445 116.176 115.225 115.828 116.257 115.48C118.289 114.784 119.684 113.717 120.45 112.288C121.065 111.123 121.367 108.901 121.367 105.611V104.507C118.5 105.825 115.496 106.479 112.353 106.479C110.289 106.479 108.468 105.825 106.899 104.507C105.138 103.073 104.257 101.255 104.257 99.0508V81.4016L108.45 79.9493V97.7146C108.45 99.6122 109.055 101.074 110.266 102.099C111.477 103.124 113.046 103.616 114.968 103.579C116.89 103.537 118.95 102.786 121.138 101.315V80.5896H125.331V103.635Z" fill="#646464"/>
<path d="M141.699 106.363C141.199 106.405 140.74 106.423 140.318 106.423C137.946 106.423 136.098 105.853 134.776 104.707C133.46 103.561 132.799 101.978 132.799 99.9602V83.2574H129.928V80.5896H132.799V73.5048L136.988 71.9969V80.5896H141.699V83.2574H136.988V99.8442C136.988 101.436 137.41 102.563 138.254 103.222C138.978 103.765 140.13 104.076 141.699 104.154V106.363Z" fill="#646464"/>
<path d="M167.084 106.015H162.892V89.6462C162.892 87.9806 162.506 86.5469 161.74 85.3499C160.855 83.9951 159.626 83.3177 158.048 83.3177C156.125 83.3177 153.722 84.3431 150.836 86.3938V106.015H146.644V66.8887L150.836 65.5525V83.3734C153.515 81.4016 156.442 80.4133 159.621 80.4133C161.841 80.4133 163.639 81.1696 165.016 82.6775C166.396 84.1853 167.084 86.0644 167.084 88.31V106.015Z" fill="#646464"/>
<path d="M189.369 92.8105C189.369 90.1473 188.869 87.9481 187.874 86.2082C186.69 84.0879 184.851 82.9698 182.364 82.8538C177.768 83.1229 175.474 86.4541 175.474 92.8383C175.474 95.7659 175.951 98.211 176.915 100.174C178.144 102.674 179.988 103.909 182.447 103.867C187.062 103.83 189.369 100.146 189.369 92.8105ZM193.961 92.8383C193.961 96.6289 193.002 99.7839 191.089 102.303C188.984 105.124 186.076 106.539 182.364 106.539C178.685 106.539 175.818 105.124 173.75 102.303C171.873 99.7839 170.938 96.6289 170.938 92.8383C170.938 89.275 171.951 86.2778 173.979 83.8374C176.121 81.2484 178.938 79.9493 182.419 79.9493C185.901 79.9493 188.736 81.2484 190.92 83.8374C192.947 86.2778 193.961 89.275 193.961 92.8383Z" fill="#646464"/>
<path d="M217.999 106.015H213.806V88.7183C213.806 86.8207 213.242 85.3406 212.113 84.2735C210.985 83.211 209.48 82.696 207.604 82.7378C205.613 82.7749 203.719 83.4337 201.92 84.7096V106.015H197.728V84.1853C200.14 82.4084 202.361 81.2484 204.388 80.7056C206.301 80.1999 207.989 79.9493 209.443 79.9493C210.439 79.9493 211.375 80.0468 212.255 80.2416C213.902 80.6267 215.242 81.3412 216.274 82.3898C217.425 83.5497 217.999 84.9416 217.999 86.5701V106.015Z" fill="#646464"/>
<path d="M36.4783 67.0454C34.3211 67.0555 32.261 67.2416 30.4483 67.566C25.1085 68.5201 24.139 70.5173 24.139 74.2003V79.0645H36.7577V80.6859H24.139H19.4032C15.7359 80.6859 12.5246 82.9153 11.5202 87.1565C10.3616 92.0179 10.3102 95.0515 11.5202 100.128C12.4172 103.906 14.5593 106.598 18.2267 106.598H22.5653V100.767C22.5653 96.5547 26.169 92.8388 30.4483 92.8388H43.0524C46.5609 92.8388 49.3618 89.917 49.3618 86.3533V74.2003C49.3618 70.7415 46.4769 68.1432 43.0524 67.566C40.8847 67.201 38.6355 67.0352 36.4783 67.0454ZM29.6542 70.9575C30.9576 70.9575 32.022 72.0517 32.022 73.397C32.022 74.7376 30.9576 75.8217 29.6542 75.8217C28.346 75.8217 27.2863 74.7376 27.2863 73.397C27.2863 72.0517 28.346 70.9575 29.6542 70.9575Z" fill="url(#paint0_linear_312_2)"/>
<path d="M50.9352 80.6859V86.3533C50.9352 90.7472 47.2521 94.4454 43.0521 94.4454H30.4481C26.9956 94.4454 24.1387 97.434 24.1387 100.931V113.084C24.1387 116.543 27.1124 118.577 30.4481 119.57C34.4425 120.757 38.2729 120.972 43.0521 119.57C46.229 118.639 49.3615 116.767 49.3615 113.084V108.22H36.7575V106.598H49.3615H55.6709C59.3383 106.598 60.7049 104.011 61.9803 100.128C63.2978 96.1298 63.2417 92.2852 61.9803 87.1566C61.074 83.464 59.343 80.6859 55.6709 80.6859H50.9352ZM43.8463 111.463C45.1544 111.463 46.2142 112.547 46.2142 113.887C46.2142 115.233 45.1544 116.327 43.8463 116.327C42.5429 116.327 41.4785 115.233 41.4785 113.887C41.4785 112.547 42.5429 111.463 43.8463 111.463Z" fill="url(#paint1_linear_312_2)"/>
<path d="M226.163 76.809H226.898V72.1459H228.64V71.5901H224.422V72.1459H226.163V76.809ZM229.292 76.809H229.92V72.5501L231.283 76.8084H231.982L233.402 72.5646V76.809H234.088V71.5901H233.181L231.629 76.0611L230.305 71.5901H229.292V76.809Z" fill="#646464"/>
<path opacity="0.44382" d="M53.8107 127.831C53.8107 128.267 53.3733 128.698 52.5235 129.1C51.6736 129.503 50.428 129.868 48.8578 130.176C47.2875 130.484 45.4234 130.728 43.3717 130.895C41.3201 131.062 39.1211 131.148 36.9005 131.148C34.6798 131.148 32.4808 131.062 30.4292 130.895C28.3776 130.728 26.5134 130.484 24.9431 130.176C23.3729 129.868 22.1273 129.503 21.2774 129.1C20.4276 128.698 19.9902 128.267 19.9902 127.831C19.9902 127.396 20.4276 126.964 21.2774 126.562C22.1273 126.16 23.3729 125.794 24.9431 125.486C26.5134 125.178 28.3776 124.934 30.4292 124.767C32.4808 124.6 34.6798 124.515 36.9005 124.515C39.1211 124.515 41.3201 124.6 43.3717 124.767C45.4234 124.934 47.2875 125.178 48.8578 125.486C50.428 125.794 51.6736 126.16 52.5235 126.562C53.3733 126.964 53.8107 127.396 53.8107 127.831Z" fill="url(#paint2_radial_312_2)"/>
<defs>
<linearGradient id="paint0_linear_312_2" x1="10.6318" y1="67.0449" x2="40.0068" y2="91.7939" gradientUnits="userSpaceOnUse">
<stop stop-color="#5A9FD4"/>
<stop offset="1" stop-color="#306998"/>
</linearGradient>
<linearGradient id="paint1_linear_312_2" x1="43.5431" y1="113.478" x2="32.9464" y2="98.7967" gradientUnits="userSpaceOnUse">
<stop stop-color="#FFD43B"/>
<stop offset="1" stop-color="#FFE873"/>
</linearGradient>
<radialGradient id="paint2_radial_312_2" cx="0" cy="0" r="1" gradientUnits="userSpaceOnUse" gradientTransform="translate(36.9005 127.831) rotate(-90) scale(3.31647 14.4127)">
<stop stop-color="#B8B8B8" stop-opacity="0.498039"/>
<stop offset="1" stop-color="#7F7F7F" stop-opacity="0"/>
</radialGradient>
</defs>
</svg>
