<svg width="246" height="35" viewBox="0 0 246 35" fill="none" xmlns="http://www.w3.org/2000/svg">
<path d="M0.132422 -2.38419e-06H17.6824V32H36.6824V35H0.132422V-2.38419e-06ZM39.5367 -2.38419e-06H75.8867V2.95H57.1367V15.9H66.3367V18.9H57.1367V32H75.8867V35H39.5367V-2.38419e-06ZM91.1039 -2.38419e-06H105.704L121.204 35H102.304L97.0539 23.4H86.0539L81.5539 35H77.9039L91.1039 -2.38419e-06ZM95.6539 20.35L91.1039 10.2L87.1539 20.35H95.6539ZM123.179 -2.38419e-06H156.629C158.263 -2.38419e-06 159.763 0.416665 161.129 1.25C162.529 2.05 163.629 3.15 164.429 4.55C165.263 5.91667 165.679 7.41667 165.679 9.05C165.679 11.2167 165.013 13.1833 163.679 14.95C162.346 16.7167 160.663 17.85 158.629 18.35C160.429 18.85 161.896 19.8 163.029 21.2C164.196 22.6 164.779 24.1833 164.779 25.95V35H148.029V24.15C148.029 23.0833 147.829 22.25 147.429 21.65C146.963 20.95 146.429 20.4333 145.829 20.1C145.163 19.7333 144.413 19.4667 143.579 19.3C142.713 19.1333 141.896 19.0333 141.129 19L139.779 18.95V35H123.179V-2.38419e-06ZM141.529 16.05C142.729 16.05 143.829 15.7667 144.829 15.2C145.863 14.6 146.663 13.8 147.229 12.8C147.829 11.7667 148.129 10.6667 148.129 9.5C148.129 8.3 147.829 7.2 147.229 6.2C146.663 5.16666 145.863 4.35 144.829 3.75C143.829 3.15 142.729 2.85 141.529 2.85H139.779V16.1L141.529 16.05ZM168.199 -2.38419e-06H182.899L197.499 17.5V-2.38419e-06H200.499V35H188.749L171.249 11.7V35H168.199V-2.38419e-06ZM203.306 -2.38419e-06H236.756C238.39 -2.38419e-06 239.89 0.416665 241.256 1.25C242.656 2.05 243.756 3.15 244.556 4.55C245.39 5.91667 245.806 7.41667 245.806 9.05C245.806 11.2167 245.14 13.1833 243.806 14.95C242.473 16.7167 240.79 17.85 238.756 18.35C240.556 18.85 242.023 19.8 243.156 21.2C244.323 22.6 244.906 24.1833 244.906 25.95V35H228.156V24.15C228.156 23.0833 227.956 22.25 227.556 21.65C227.09 20.95 226.556 20.4333 225.956 20.1C225.29 19.7333 224.54 19.4667 223.706 19.3C222.84 19.1333 222.023 19.0333 221.256 19L219.906 18.95V35H203.306V-2.38419e-06ZM221.656 16.05C222.856 16.05 223.956 15.7667 224.956 15.2C225.99 14.6 226.79 13.8 227.356 12.8C227.956 11.7667 228.256 10.6667 228.256 9.5C228.256 8.3 227.956 7.2 227.356 6.2C226.79 5.16666 225.99 4.35 224.956 3.75C223.956 3.15 222.856 2.85 221.656 2.85H219.906V16.1L221.656 16.05Z" fill="#A8DADC"/>
</svg>
