<svg width="252" height="196" viewBox="0 0 252 196" fill="none" xmlns="http://www.w3.org/2000/svg">
<g filter="url(#filter0_d_312_5)">
<rect x="1" width="244" height="188" rx="50" fill="white"/>
<g clip-path="url(#clip0_312_5)">
<path d="M72.3501 159L37.7177 148.478L30 53.7446H114.804L107.078 148.464L72.3501 159Z" fill="#264DE4"/>
<path d="M100.464 142.432L107.067 61.4905H72.4023V150.946L100.464 142.432Z" fill="#2965F1"/>
<path d="M47.6924 96.6259L48.6439 108.244H72.4017V96.6259H47.6924Z" fill="#EBEBEB"/>
<path d="M45.7803 73.1093L46.7454 84.7281H72.4016V73.1093H72.3649H45.7803Z" fill="#EBEBEB"/>
<path d="M72.4016 126.801L72.3551 126.814L60.5314 123.32L59.7755 114.054H54.0301H49.1182L50.6055 132.297L72.3528 138.904L72.4016 138.889V126.801Z" fill="#EBEBEB"/>
<path d="M49.958 28H62.8165V33.8848H55.3352V39.7695H62.8165V45.6543H49.958V28Z" fill="black"/>
<path d="M65.3887 28H78.2472V33.1172H70.7659V34.1406H78.2472V45.9102H65.3887V40.5371H72.87V39.5137H65.3887V28Z" fill="black"/>
<path d="M80.8184 28H93.6769V33.1172H86.1955V34.1406H93.6769V45.9102H80.8184V40.5371H88.2997V39.5137H80.8184V28Z" fill="black"/>
<path d="M97.0433 96.6258L98.9599 73.1093H72.3652V84.7281H87.325L86.359 96.6258H72.3652V108.244H85.4383L84.206 123.313L72.3652 126.811V138.898L94.1298 132.297L94.2894 130.334L96.7842 99.7458L97.0433 96.6258Z" fill="white"/>
<path d="M215 53.7446L207.274 148.464L172.546 159L137.914 148.478L130.196 53.7446H215Z" fill="#E44D26"/>
<path d="M172.599 150.946L200.661 142.432L207.263 61.4905H172.599V150.946Z" fill="#F16529"/>
<path d="M157.579 84.7281H172.598V73.1093H172.561H145.977L146.231 76.2264L148.84 108.244H172.598V96.6258H158.549L157.579 84.7281Z" fill="#EBEBEB"/>
<path d="M159.972 114.054H154.226H149.314L150.802 132.297L172.549 138.904L172.598 138.889V126.801L172.551 126.814L160.728 123.32L159.972 114.054Z" fill="#EBEBEB"/>
<path d="M138.087 28H143.482V33.8336H148.417V28H153.813V45.6656H148.418V39.7501H143.482V45.6656H138.087L138.087 28Z" fill="black"/>
<path d="M160.907 33.8582H156.157V28H171.054V33.8582H166.303V45.6656H160.907L160.907 33.8582Z" fill="black"/>
<path d="M173.419 28H179.045L182.505 34.2071L185.962 28H191.59V45.6656H186.217V36.9095L182.505 43.1906H182.412L178.698 36.9095V45.6656H173.419V28Z" fill="black"/>
<path d="M194.275 28H199.672V39.8263H207.259V45.6656H194.275V28Z" fill="black"/>
<path d="M172.562 108.244H185.635L184.402 123.313L172.562 126.811V138.898L194.326 132.297L194.486 130.334L196.981 99.7458L197.24 96.6259H194.379H172.562V108.244Z" fill="white"/>
<path d="M172.562 84.6997V84.7281H198.171H198.206L198.419 82.1165L198.902 76.2264L199.156 73.1093H172.562V80.3255V84.6997Z" fill="white"/>
</g>
</g>
<defs>
<filter id="filter0_d_312_5" x="0" y="0" width="252" height="196" filterUnits="userSpaceOnUse" color-interpolation-filters="sRGB">
<feFlood flood-opacity="0" result="BackgroundImageFix"/>
<feColorMatrix in="SourceAlpha" type="matrix" values="0 0 0 0 0 0 0 0 0 0 0 0 0 0 0 0 0 0 127 0" result="hardAlpha"/>
<feOffset dx="3" dy="4"/>
<feGaussianBlur stdDeviation="2"/>
<feComposite in2="hardAlpha" operator="out"/>
<feColorMatrix type="matrix" values="0 0 0 0 0 0 0 0 0 0 0 0 0 0 0 0 0 0 1 0"/>
<feBlend mode="normal" in2="BackgroundImageFix" result="effect1_dropShadow_312_5"/>
<feBlend mode="normal" in="SourceGraphic" in2="effect1_dropShadow_312_5" result="shape"/>
</filter>
<clipPath id="clip0_312_5">
<rect width="185" height="131" fill="white" transform="translate(30 28)"/>
</clipPath>
</defs>
</svg>
