<svg width="244" height="188" viewBox="0 0 244 188" fill="none" xmlns="http://www.w3.org/2000/svg">
<rect width="244" height="188" rx="50" fill="#A8DADC"/>
<g clip-path="url(#clip0_312_5)">
<path d="M71.3501 159L36.7177 148.478L29 53.7446H113.804L106.078 148.464L71.3501 159Z" fill="#264DE4"/>
<path d="M99.4643 142.432L106.067 61.4905H71.4023V150.946L99.4643 142.432Z" fill="#2965F1"/>
<path d="M46.6924 96.6259L47.6439 108.244H71.4017V96.6259H46.6924Z" fill="#EBEBEB"/>
<path d="M44.7803 73.1093L45.7454 84.7281H71.4016V73.1093H71.3649H44.7803Z" fill="#EBEBEB"/>
<path d="M71.4016 126.801L71.3551 126.814L59.5314 123.32L58.7755 114.054H53.0301H48.1182L49.6055 132.297L71.3528 138.904L71.4016 138.889V126.801Z" fill="#EBEBEB"/>
<path d="M48.958 28H61.8165V33.8848H54.3352V39.7695H61.8165V45.6543H48.958V28Z" fill="black"/>
<path d="M64.3887 28H77.2472V33.1172H69.7659V34.1406H77.2472V45.9102H64.3887V40.5371H71.87V39.5137H64.3887V28Z" fill="black"/>
<path d="M79.8184 28H92.6769V33.1172H85.1955V34.1406H92.6769V45.9102H79.8184V40.5371H87.2997V39.5137H79.8184V28Z" fill="black"/>
<path d="M96.0433 96.6258L97.9599 73.1093H71.3652V84.7281H86.325L85.359 96.6258H71.3652V108.244H84.4383L83.206 123.313L71.3652 126.811V138.898L93.1298 132.297L93.2894 130.334L95.7842 99.7458L96.0433 96.6258Z" fill="white"/>
<path d="M214 53.7446L206.274 148.464L171.546 159L136.914 148.478L129.196 53.7446H214Z" fill="#E44D26"/>
<path d="M171.599 150.946L199.661 142.432L206.263 61.4905H171.599V150.946Z" fill="#F16529"/>
<path d="M156.579 84.7281H171.598V73.1093H171.561H144.977L145.231 76.2264L147.84 108.244H171.598V96.6258H157.549L156.579 84.7281Z" fill="#EBEBEB"/>
<path d="M158.972 114.054H153.226H148.314L149.802 132.297L171.549 138.904L171.598 138.889V126.801L171.551 126.814L159.728 123.32L158.972 114.054Z" fill="#EBEBEB"/>
<path d="M137.087 28H142.482V33.8336H147.417V28H152.813V45.6656H147.418V39.7501H142.482V45.6656H137.087L137.087 28Z" fill="black"/>
<path d="M159.907 33.8582H155.157V28H170.054V33.8582H165.303V45.6656H159.907L159.907 33.8582Z" fill="black"/>
<path d="M172.419 28H178.045L181.505 34.2071L184.962 28H190.59V45.6656H185.217V36.9095L181.505 43.1906H181.412L177.698 36.9095V45.6656H172.419V28Z" fill="black"/>
<path d="M193.275 28H198.672V39.8263H206.259V45.6656H193.275V28Z" fill="black"/>
<path d="M171.562 108.244H184.635L183.402 123.313L171.562 126.811V138.898L193.326 132.297L193.486 130.334L195.981 99.7458L196.24 96.6259H193.379H171.562V108.244Z" fill="white"/>
<path d="M171.562 84.6997V84.7281H197.171H197.206L197.419 82.1165L197.902 76.2264L198.156 73.1093H171.562V80.3255V84.6997Z" fill="white"/>
</g>
<defs>
<clipPath id="clip0_312_5">
<rect width="185" height="131" fill="white" transform="translate(29 28)"/>
</clipPath>
</defs>
</svg>
