<svg width="244" height="188" viewBox="0 0 244 188" fill="none" xmlns="http://www.w3.org/2000/svg">
<rect width="244" height="188" rx="50" fill="#A8DADC"/>
<path d="M42.1168 117.577C42.1168 117.577 38.7595 119.638 44.4538 120.228C51.2938 121.11 54.9608 120.964 62.5494 119.492C62.5494 119.492 64.5919 120.814 67.3659 121.849C50.2906 129.209 28.6933 121.409 42.1187 117.581L42.1168 117.577ZM39.928 108.009C39.928 108.009 36.28 110.808 41.9705 111.396C49.4128 112.132 55.2705 112.278 65.3215 110.219C65.3215 110.219 66.6325 111.691 68.8232 112.427C48.2462 118.61 25.1878 113.014 39.928 108.009ZM80.208 124.792C80.208 124.792 82.6894 126.852 77.434 128.472C67.6566 131.416 36.4263 132.299 27.6692 128.472C24.6045 127.149 30.4432 125.213 32.3394 124.939C34.2394 124.498 35.2578 124.498 35.2578 124.498C31.9024 122.141 12.929 129.357 25.6248 131.398C60.5031 137.139 89.252 128.895 80.2042 124.774L80.208 124.792ZM43.7204 97.9984C43.7204 97.9984 27.8136 101.826 38.028 103.15C42.4056 103.739 51.0164 103.591 59.042 103.003C65.6084 102.414 72.1767 101.236 72.1767 101.236C72.1767 101.236 69.8397 102.267 68.2361 103.296C52.0367 107.565 20.9527 105.654 29.8561 101.236C37.4447 97.5557 43.7204 97.9773 43.7204 97.9773V97.9984ZM72.1786 114.045C88.5224 105.506 80.9338 97.2624 75.6803 98.2936C74.3693 98.5888 73.7803 98.882 73.7803 98.882C73.7803 98.882 74.2173 98.0003 75.2395 97.7052C85.6002 94.0252 93.774 108.745 71.8822 114.488C71.8822 114.488 72.0285 114.34 72.1748 114.047L72.1786 114.045ZM45.3278 137.304C61.0883 138.335 85.1708 136.715 85.7522 129.208C85.7522 129.208 84.5856 132.152 72.7638 134.36C59.3384 136.863 42.702 136.568 32.9208 134.948C32.9208 134.948 34.9633 136.713 45.3278 137.304Z" fill="#4E7896"/>
<path d="M62.2541 49.4166C62.2541 49.4166 71.3019 58.6933 53.6433 72.6773C39.4883 84.0125 50.4133 90.4908 53.6433 97.8508C45.3251 90.3432 39.342 83.7192 43.427 77.5341C49.412 68.407 65.9021 63.991 62.2541 49.4166ZM57.5839 91.6676C61.8152 96.5264 56.4154 100.944 56.4154 100.944C56.4154 100.944 67.215 95.3476 62.2522 88.4285C57.7302 81.8045 54.2266 78.5653 73.1962 67.5234C73.1962 67.5234 43.2788 75.031 57.582 91.6657L57.5839 91.6676Z" fill="#F58219"/>
<path d="M151.104 109.144V86.7629C151.104 81.0512 147.935 77.1719 140.012 77.1719C135.484 77.1719 131.633 78.3142 128.24 79.6827L129.372 83.794C131.861 82.8797 135.034 81.9674 138.427 81.9674C142.729 81.9674 144.766 83.794 144.766 87.449V90.4199H142.52C131.652 90.4199 126.674 94.5311 126.674 101.153C126.674 106.635 130.069 109.832 136.182 109.832C140.031 109.832 142.974 108.005 145.689 105.721L146.141 109.146H151.119L151.104 109.144ZM144.762 101.837C142.501 103.892 140.008 105.034 137.743 105.034C134.798 105.034 132.99 103.208 132.99 100.013C132.99 96.8177 134.8 94.5311 142.045 94.5311H144.762V101.839V101.837ZM172.38 109.146H164.457L154.952 77.86H161.744L167.63 97.0458L168.989 102.757C171.934 94.535 174.195 86.0863 175.101 77.8657H181.892C180.081 88.1429 176.914 99.3324 172.384 109.151L172.38 109.146ZM209.054 109.146V86.7629C209.054 81.0512 205.885 77.1719 197.958 77.1719C193.431 77.1719 189.583 78.3142 186.186 79.6827L187.092 83.794C189.809 82.8797 192.978 81.9674 196.374 81.9674C200.675 81.9674 202.712 83.794 202.712 87.449V90.4199H200.451C189.583 90.4199 184.605 94.5311 184.605 101.153C184.605 106.635 187.774 109.832 193.887 109.832C197.962 109.832 200.905 108.005 203.62 105.721L204.072 109.146H209.05H209.054ZM202.716 101.837C200.455 103.892 197.962 105.034 195.697 105.034C192.752 105.034 190.943 103.208 190.943 100.013C190.943 96.8177 192.754 94.5311 199.999 94.5311H202.716V101.839V101.837ZM119.633 114.397C117.822 117.138 115.105 119.193 111.71 120.335L108.765 116.682C111.029 115.312 113.292 113.257 114.199 111.43C115.105 109.832 115.331 107.547 115.331 102.296V66.6666H122.124V101.837C122.124 108.918 121.441 111.657 119.633 114.397Z" fill="#4E7896"/>
</svg>
