<svg width="252" height="196" viewBox="0 0 252 196" fill="none" xmlns="http://www.w3.org/2000/svg">
<g filter="url(#filter0_d_312_3)">
<rect x="1" width="244" height="188" rx="50" fill="#A8DADC"/>
</g>
<path d="M43.1168 117.577C43.1168 117.577 39.7595 119.638 45.4538 120.228C52.2938 121.11 55.9608 120.964 63.5494 119.492C63.5494 119.492 65.5919 120.814 68.3659 121.849C51.2906 129.209 29.6933 121.409 43.1187 117.581L43.1168 117.577ZM40.928 108.009C40.928 108.009 37.28 110.808 42.9705 111.396C50.4128 112.132 56.2705 112.278 66.3215 110.219C66.3215 110.219 67.6325 111.691 69.8232 112.427C49.2462 118.61 26.1878 113.014 40.928 108.009ZM81.208 124.792C81.208 124.792 83.6894 126.852 78.434 128.472C68.6566 131.416 37.4263 132.299 28.6692 128.472C25.6045 127.149 31.4432 125.213 33.3394 124.939C35.2394 124.498 36.2578 124.498 36.2578 124.498C32.9024 122.141 13.929 129.357 26.6248 131.398C61.5031 137.139 90.252 128.895 81.2042 124.774L81.208 124.792ZM44.7204 97.9984C44.7204 97.9984 28.8136 101.826 39.028 103.15C43.4056 103.739 52.0164 103.591 60.042 103.003C66.6084 102.414 73.1767 101.236 73.1767 101.236C73.1767 101.236 70.8397 102.267 69.2361 103.296C53.0367 107.565 21.9527 105.654 30.8561 101.236C38.4447 97.5557 44.7204 97.9773 44.7204 97.9773V97.9984ZM73.1786 114.045C89.5224 105.506 81.9338 97.2624 76.6803 98.2936C75.3693 98.5888 74.7803 98.882 74.7803 98.882C74.7803 98.882 75.2173 98.0003 76.2395 97.7052C86.6002 94.0252 94.774 108.745 72.8822 114.488C72.8822 114.488 73.0285 114.34 73.1748 114.047L73.1786 114.045ZM46.3278 137.304C62.0883 138.335 86.1708 136.715 86.7522 129.208C86.7522 129.208 85.5856 132.152 73.7638 134.36C60.3384 136.863 43.702 136.568 33.9208 134.948C33.9208 134.948 35.9633 136.713 46.3278 137.304Z" fill="#4E7896"/>
<path d="M63.2541 49.4166C63.2541 49.4166 72.3019 58.6933 54.6433 72.6773C40.4883 84.0125 51.4133 90.4908 54.6433 97.8508C46.3251 90.3432 40.342 83.7192 44.427 77.5341C50.412 68.407 66.9021 63.991 63.2541 49.4166ZM58.5839 91.6676C62.8152 96.5264 57.4154 100.944 57.4154 100.944C57.4154 100.944 68.215 95.3476 63.2522 88.4285C58.7302 81.8045 55.2266 78.5653 74.1962 67.5234C74.1962 67.5234 44.2788 75.031 58.582 91.6657L58.5839 91.6676Z" fill="#F58219"/>
<path d="M152.104 109.144V86.7629C152.104 81.0512 148.935 77.1719 141.012 77.1719C136.484 77.1719 132.633 78.3142 129.24 79.6827L130.372 83.794C132.861 82.8797 136.034 81.9674 139.427 81.9674C143.729 81.9674 145.766 83.794 145.766 87.449V90.4199H143.52C132.652 90.4199 127.674 94.5311 127.674 101.153C127.674 106.635 131.069 109.832 137.182 109.832C141.031 109.832 143.974 108.005 146.689 105.721L147.141 109.146H152.119L152.104 109.144ZM145.762 101.837C143.501 103.892 141.008 105.034 138.743 105.034C135.798 105.034 133.99 103.208 133.99 100.013C133.99 96.8177 135.8 94.5311 143.045 94.5311H145.762V101.839V101.837ZM173.38 109.146H165.457L155.952 77.86H162.744L168.63 97.0458L169.989 102.757C172.934 94.535 175.195 86.0863 176.101 77.8657H182.892C181.081 88.1429 177.914 99.3324 173.384 109.151L173.38 109.146ZM210.054 109.146V86.7629C210.054 81.0512 206.885 77.1719 198.958 77.1719C194.431 77.1719 190.583 78.3142 187.186 79.6827L188.092 83.794C190.809 82.8797 193.978 81.9674 197.374 81.9674C201.675 81.9674 203.712 83.794 203.712 87.449V90.4199H201.451C190.583 90.4199 185.605 94.5311 185.605 101.153C185.605 106.635 188.774 109.832 194.887 109.832C198.962 109.832 201.905 108.005 204.62 105.721L205.072 109.146H210.05H210.054ZM203.716 101.837C201.455 103.892 198.962 105.034 196.697 105.034C193.752 105.034 191.943 103.208 191.943 100.013C191.943 96.8177 193.754 94.5311 200.999 94.5311H203.716V101.839V101.837ZM120.633 114.397C118.822 117.138 116.105 119.193 112.71 120.335L109.765 116.682C112.029 115.312 114.292 113.257 115.199 111.43C116.105 109.832 116.331 107.547 116.331 102.296V66.6666H123.124V101.837C123.124 108.918 122.441 111.657 120.633 114.397Z" fill="#4E7896"/>
<defs>
<filter id="filter0_d_312_3" x="0" y="0" width="252" height="196" filterUnits="userSpaceOnUse" color-interpolation-filters="sRGB">
<feFlood flood-opacity="0" result="BackgroundImageFix"/>
<feColorMatrix in="SourceAlpha" type="matrix" values="0 0 0 0 0 0 0 0 0 0 0 0 0 0 0 0 0 0 127 0" result="hardAlpha"/>
<feOffset dx="3" dy="4"/>
<feGaussianBlur stdDeviation="2"/>
<feComposite in2="hardAlpha" operator="out"/>
<feColorMatrix type="matrix" values="0 0 0 0 0 0 0 0 0 0 0 0 0 0 0 0 0 0 1 0"/>
<feBlend mode="normal" in2="BackgroundImageFix" result="effect1_dropShadow_312_3"/>
<feBlend mode="normal" in="SourceGraphic" in2="effect1_dropShadow_312_3" result="shape"/>
</filter>
</defs>
</svg>
