<svg width="253" height="196" viewBox="0 0 253 196" fill="none" xmlns="http://www.w3.org/2000/svg">
<g filter="url(#filter0_d_312_2)">
<rect x="1" width="244" height="188" rx="50" fill="#A8DADC"/>
<path d="M95.8855 93.4786C95.8855 86.5469 93.9313 82.9883 90.023 82.7934C88.4679 82.7192 86.9495 82.9698 85.4724 83.5497C84.2935 83.9766 83.4999 84.3988 83.0824 84.8256V101.371C85.5825 102.957 87.8027 103.695 89.7386 103.579C93.835 103.305 95.8855 99.9416 95.8855 93.4786ZM100.707 93.7662C100.707 97.2877 99.8902 100.211 98.248 102.535C96.4176 105.166 93.8809 106.521 90.6377 106.595C88.1926 106.674 85.6742 105.899 83.0824 104.275V119.312L78.8896 117.8V84.422C79.5777 83.5683 80.4631 82.8352 81.5365 82.2135C84.032 80.7427 87.0642 79.9865 90.6331 79.9493L90.6927 80.0097C93.9543 79.9679 96.4681 81.3227 98.2342 84.0694C99.881 86.5887 100.707 89.8179 100.707 93.7662Z" fill="#646464"/>
<path d="M126.331 103.635C126.331 108.358 125.863 111.629 124.927 113.448C123.987 115.266 122.198 116.719 119.555 117.8C117.413 118.653 115.097 119.117 112.61 119.196L111.918 116.524C114.445 116.176 116.225 115.828 117.257 115.48C119.289 114.784 120.684 113.717 121.45 112.288C122.065 111.123 122.367 108.901 122.367 105.611V104.507C119.5 105.825 116.496 106.479 113.353 106.479C111.289 106.479 109.468 105.825 107.899 104.507C106.138 103.073 105.257 101.255 105.257 99.0508V81.4016L109.45 79.9493V97.7146C109.45 99.6122 110.055 101.074 111.266 102.099C112.477 103.124 114.046 103.616 115.968 103.579C117.89 103.537 119.95 102.786 122.138 101.315V80.5896H126.331V103.635Z" fill="#646464"/>
<path d="M142.699 106.363C142.199 106.405 141.74 106.423 141.318 106.423C138.946 106.423 137.098 105.853 135.776 104.707C134.46 103.561 133.799 101.978 133.799 99.9602V83.2574H130.928V80.5896H133.799V73.5048L137.988 71.9969V80.5896H142.699V83.2574H137.988V99.8442C137.988 101.436 138.41 102.563 139.254 103.222C139.978 103.765 141.13 104.076 142.699 104.154V106.363Z" fill="#646464"/>
<path d="M168.084 106.015H163.892V89.6462C163.892 87.9806 163.506 86.5469 162.74 85.3499C161.855 83.9951 160.626 83.3177 159.048 83.3177C157.125 83.3177 154.722 84.3431 151.836 86.3938V106.015H147.644V66.8887L151.836 65.5525V83.3734C154.515 81.4016 157.442 80.4133 160.621 80.4133C162.841 80.4133 164.639 81.1696 166.016 82.6775C167.396 84.1853 168.084 86.0644 168.084 88.31V106.015Z" fill="#646464"/>
<path d="M190.369 92.8105C190.369 90.1473 189.869 87.9481 188.874 86.2082C187.69 84.0879 185.851 82.9698 183.364 82.8538C178.768 83.1229 176.474 86.4541 176.474 92.8383C176.474 95.7659 176.951 98.211 177.915 100.174C179.144 102.674 180.988 103.909 183.447 103.867C188.062 103.83 190.369 100.146 190.369 92.8105ZM194.961 92.8383C194.961 96.6289 194.002 99.7839 192.089 102.303C189.984 105.124 187.076 106.539 183.364 106.539C179.685 106.539 176.818 105.124 174.75 102.303C172.873 99.7839 171.938 96.6289 171.938 92.8383C171.938 89.275 172.951 86.2778 174.979 83.8374C177.121 81.2484 179.938 79.9493 183.419 79.9493C186.901 79.9493 189.736 81.2484 191.92 83.8374C193.947 86.2778 194.961 89.275 194.961 92.8383Z" fill="#646464"/>
<path d="M218.999 106.015H214.806V88.7183C214.806 86.8207 214.242 85.3406 213.113 84.2735C211.985 83.211 210.48 82.696 208.604 82.7378C206.613 82.7749 204.719 83.4337 202.92 84.7096V106.015H198.728V84.1853C201.14 82.4084 203.361 81.2484 205.388 80.7056C207.301 80.1999 208.989 79.9493 210.443 79.9493C211.439 79.9493 212.375 80.0468 213.255 80.2416C214.902 80.6267 216.242 81.3412 217.274 82.3898C218.425 83.5497 218.999 84.9416 218.999 86.5701V106.015Z" fill="#646464"/>
<path d="M37.4783 67.0454C35.3211 67.0555 33.261 67.2416 31.4483 67.566C26.1085 68.5201 25.139 70.5173 25.139 74.2003V79.0645H37.7577V80.6859H25.139H20.4032C16.7359 80.6859 13.5246 82.9153 12.5202 87.1565C11.3616 92.0179 11.3102 95.0515 12.5202 100.128C13.4172 103.906 15.5593 106.598 19.2267 106.598H23.5653V100.767C23.5653 96.5547 27.169 92.8388 31.4483 92.8388H44.0524C47.5609 92.8388 50.3618 89.917 50.3618 86.3533V74.2003C50.3618 70.7415 47.4769 68.1432 44.0524 67.566C41.8847 67.201 39.6355 67.0352 37.4783 67.0454ZM30.6542 70.9575C31.9576 70.9575 33.022 72.0517 33.022 73.397C33.022 74.7376 31.9576 75.8217 30.6542 75.8217C29.346 75.8217 28.2863 74.7376 28.2863 73.397C28.2863 72.0517 29.346 70.9575 30.6542 70.9575Z" fill="url(#paint0_linear_312_2)"/>
<path d="M51.9352 80.6859V86.3533C51.9352 90.7472 48.2521 94.4454 44.0521 94.4454H31.4481C27.9956 94.4454 25.1387 97.434 25.1387 100.931V113.084C25.1387 116.543 28.1124 118.577 31.4481 119.57C35.4425 120.757 39.2729 120.972 44.0521 119.57C47.229 118.639 50.3615 116.767 50.3615 113.084V108.22H37.7575V106.598H50.3615H56.6709C60.3383 106.598 61.7049 104.011 62.9803 100.128C64.2978 96.1298 64.2417 92.2852 62.9803 87.1566C62.074 83.464 60.343 80.6859 56.6709 80.6859H51.9352ZM44.8463 111.463C46.1544 111.463 47.2142 112.547 47.2142 113.887C47.2142 115.233 46.1544 116.327 44.8463 116.327C43.5429 116.327 42.4785 115.233 42.4785 113.887C42.4785 112.547 43.5429 111.463 44.8463 111.463Z" fill="url(#paint1_linear_312_2)"/>
<path d="M227.163 76.809H227.898V72.1459H229.64V71.5901H225.422V72.1459H227.163V76.809ZM230.292 76.809H230.92V72.5501L232.283 76.8084H232.982L234.402 72.5646V76.809H235.088V71.5901H234.181L232.629 76.0611L231.305 71.5901H230.292V76.809Z" fill="#646464"/>
<path opacity="0.44382" d="M54.8107 127.831C54.8107 128.267 54.3733 128.698 53.5235 129.1C52.6736 129.503 51.428 129.868 49.8578 130.176C48.2875 130.484 46.4234 130.728 44.3717 130.895C42.3201 131.062 40.1211 131.148 37.9005 131.148C35.6798 131.148 33.4808 131.062 31.4292 130.895C29.3776 130.728 27.5134 130.484 25.9431 130.176C24.3729 129.868 23.1273 129.503 22.2774 129.1C21.4276 128.698 20.9902 128.267 20.9902 127.831C20.9902 127.396 21.4276 126.964 22.2774 126.562C23.1273 126.16 24.3729 125.794 25.9431 125.486C27.5134 125.178 29.3776 124.934 31.4292 124.767C33.4808 124.6 35.6798 124.515 37.9005 124.515C40.1211 124.515 42.3201 124.6 44.3717 124.767C46.4234 124.934 48.2875 125.178 49.8578 125.486C51.428 125.794 52.6736 126.16 53.5235 126.562C54.3733 126.964 54.8107 127.396 54.8107 127.831Z" fill="url(#paint2_radial_312_2)"/>
</g>
<defs>
<filter id="filter0_d_312_2" x="0" y="0" width="253" height="196" filterUnits="userSpaceOnUse" color-interpolation-filters="sRGB">
<feFlood flood-opacity="0" result="BackgroundImageFix"/>
<feColorMatrix in="SourceAlpha" type="matrix" values="0 0 0 0 0 0 0 0 0 0 0 0 0 0 0 0 0 0 127 0" result="hardAlpha"/>
<feOffset dx="3" dy="4"/>
<feGaussianBlur stdDeviation="2"/>
<feComposite in2="hardAlpha" operator="out"/>
<feColorMatrix type="matrix" values="0 0 0 0 0 0 0 0 0 0 0 0 0 0 0 0 0 0 1 0"/>
<feBlend mode="normal" in2="BackgroundImageFix" result="effect1_dropShadow_312_2"/>
<feBlend mode="normal" in="SourceGraphic" in2="effect1_dropShadow_312_2" result="shape"/>
</filter>
<linearGradient id="paint0_linear_312_2" x1="11.6318" y1="67.0449" x2="41.0068" y2="91.7939" gradientUnits="userSpaceOnUse">
<stop stop-color="#5A9FD4"/>
<stop offset="1" stop-color="#306998"/>
</linearGradient>
<linearGradient id="paint1_linear_312_2" x1="44.5431" y1="113.478" x2="33.9464" y2="98.7967" gradientUnits="userSpaceOnUse">
<stop stop-color="#FFD43B"/>
<stop offset="1" stop-color="#FFE873"/>
</linearGradient>
<radialGradient id="paint2_radial_312_2" cx="0" cy="0" r="1" gradientUnits="userSpaceOnUse" gradientTransform="translate(37.9005 127.831) rotate(-90) scale(3.31647 14.4127)">
<stop stop-color="#B8B8B8" stop-opacity="0.498039"/>
<stop offset="1" stop-color="#7F7F7F" stop-opacity="0"/>
</radialGradient>
</defs>
</svg>
